<svg width="23" height="21" xmlns="http://www.w3.org/2000/svg" xmlns:xlink="http://www.w3.org/1999/xlink" xmlns:svgjs="http://svgjs.com/svgjs" viewBox="0.242 0 22.517 21" fill="#006400"><svg xmlns="http://www.w3.org/2000/svg" width="23" height="21" viewBox="0 0.259 22.238 20.741"><path paint-order="stroke fill markers" fill-rule="evenodd" d="M18.574 8.202c-.032-3.453 2.827-5.132 2.958-5.212C19.914.63 17.403.307 16.522.282c-2.108-.221-4.15 1.262-5.226 1.262-1.095 0-2.748-1.24-4.53-1.204C4.475.376 2.33 1.704 1.154 3.765-1.275 7.968.535 14.145 2.86 17.543c1.164 1.663 2.524 3.522 4.303 3.455 1.741-.072 2.39-1.11 4.492-1.11 2.083 0 2.693 1.11 4.509 1.07 1.868-.032 3.045-1.672 4.167-3.352 1.345-1.907 1.885-3.785 1.906-3.882-.043-.014-3.628-1.382-3.664-5.522z"/></svg></svg>