<svg xmlns="http://www.w3.org/2000/svg" width="666.185" height="665.37" viewBox="0 0 666.185 665.37">
  <g id="Group_1" data-name="Group 1" transform="translate(-57 -182.274)" style="mix-blend-mode: overlay;isolation: isolate">
    <path id="Path_1" data-name="Path 1" d="M390.092,182.274C206.184,182.274,57,331.458,57,515.366S206.184,847.644,390.092,847.644s333.092-148.37,333.092-332.278c-.205-183.821-149.272-332.887-333.092-333.092ZM648.259,341.9l-23.618,97.729-121.347,40.72-101.8-81.441V278.374l116.46-46.421A312.675,312.675,0,0,1,648.259,341.9Zm1.629,343.68-109.945,17.1-60.266-79,30.947-122.161,119.718-39.906,69.225,82.255a310.32,310.32,0,0,1-49.679,141.707Zm-408.832,17.1L130.3,685.577A310.256,310.256,0,0,1,80.618,543.87l69.225-82.255L269.56,501.521l30.947,122.161ZM78.989,510.48a308.483,308.483,0,0,1,36.648-141.707l17.917,76.554ZM320.868,614.724,291.549,496.635l98.543-78.183,98.543,78.183L459.317,614.724Zm325.763-169.4,17.917-76.554c23.338,43.673,35.243,92.186,35.834,141.707ZM487.007,219.736l-96.914,39.092-97.729-39.092a307.713,307.713,0,0,1,194.643,0ZM261.416,231.952l117.275,46.421V398.906l-101.8,81.441-121.347-40.72L131.925,341.9A312.539,312.539,0,0,1,261.416,231.952ZM149.028,710.824l90.4,13.845,54.565,85.513a311.569,311.569,0,0,1-144.964-99.358ZM325.754,819.14,258.973,714.9l58.637-78.183H461.76l60.266,79L464.2,816.7a309.711,309.711,0,0,1-138.449,2.443Zm169.4-11.4,47.236-83.069,88.77-13.845a310.722,310.722,0,0,1-136.006,96.914Zm0,0" fill="#212121"/>
  </g>
</svg>
