<svg xmlns="http://www.w3.org/2000/svg" width="32" height="27.259" viewBox="0 0 32 27.259">
  <g id="Group_186" data-name="Group 186" transform="translate(-778 -463.078)">
    <path id="Path_199" data-name="Path 199" d="M824.447,555.177H808.954a5.086,5.086,0,0,1-5.071-5.071V542.5a5.085,5.085,0,0,1,5.071-5.071h15.493a5.086,5.086,0,0,1,5.071,5.071v7.606a5.086,5.086,0,0,1-5.071,5.07Zm0,0" transform="translate(-22.7 -65.209)" fill="#006400"/>
    <path id="Path_200" data-name="Path 200" d="M824.447,537.43H808.954a5.086,5.086,0,0,0-5.071,5.071v1.107a5.085,5.085,0,0,1,5.071-5.071h15.493a5.085,5.085,0,0,1,5.071,5.071V542.5a5.086,5.086,0,0,0-5.071-5.071Zm0,0" transform="translate(-22.7 -65.209)" fill="#fff"/>
    <path id="Path_201" data-name="Path 201" d="M827.039,570.723a2.538,2.538,0,0,1-2.535-2.535v-7.606a2.538,2.538,0,0,1,2.535-2.535h15.493a2.538,2.538,0,0,1,2.535,2.535v7.606a2.538,2.538,0,0,1-2.535,2.535Zm0,0" transform="translate(-40.785 -83.291)" fill="#fff"/>
    <path id="Path_202" data-name="Path 202" d="M783.815,585.852v5.628a2.814,2.814,0,0,1,0-5.628Zm0,0" transform="translate(-2.632 -107.677)" fill="#fff"/>
    <path id="Path_203" data-name="Path 203" d="M1015.159,588.666a2.813,2.813,0,0,1-2.814,2.814v-5.628a2.813,2.813,0,0,1,2.814,2.814Zm0,0" transform="translate(-205.528 -107.677)" fill="#fff"/>
    <path id="Path_204" data-name="Path 204" d="M888.045,514.547a2.813,2.813,0,0,0-2.814,2.814h5.628a2.813,2.813,0,0,0-2.814-2.814Zm0,0" transform="translate(-94.045 -45.14)" fill="#006400"/>
    <path id="Path_205" data-name="Path 205" d="M900.122,467.385a1.3,1.3,0,1,1-1.3-1.3,1.3,1.3,0,0,1,1.3,1.3Zm0,0" transform="translate(-104.819 -2.635)" fill="#fff"/>
    <path id="Path_206" data-name="Path 206" d="M855.035,585.391a1.584,1.584,0,1,0,1.584,1.585,1.589,1.589,0,0,0-1.584-1.585Zm0,0" transform="translate(-66.172 -107.272)" fill="#006400"/>
    <path id="Path_207" data-name="Path 207" d="M940.177,586.976a1.584,1.584,0,1,1-1.584-1.585,1.584,1.584,0,0,1,1.584,1.585Zm0,0" transform="translate(-139.455 -107.272)" fill="#006400"/>
    <path id="Path_208" data-name="Path 208" d="M895.34,624.894a1.732,1.732,0,0,1-1.314.6,1.675,1.675,0,0,1-1.309-.591.369.369,0,0,0-.6.433,2.414,2.414,0,0,0,1.905.9,2.48,2.48,0,0,0,1.9-.888.369.369,0,0,0-.586-.448Zm0,0" transform="translate(-100.027 -141.791)" fill="#006400"/>
    <path id="Path_209" data-name="Path 209" d="M807.186,477.83v-.538a5.445,5.445,0,0,0-5.439-5.439H797.16a3.187,3.187,0,0,0-2.791-2.791v-2.684a1.672,1.672,0,1,0-.738,0v2.684a3.187,3.187,0,0,0-2.791,2.791h-4.587a5.445,5.445,0,0,0-5.44,5.439v.538a3.181,3.181,0,0,0,0,6.32v.748a5.446,5.446,0,0,0,5.44,5.439h15.493a5.445,5.445,0,0,0,5.439-5.439v-.748a3.181,3.181,0,0,0,0-6.32Zm-14.119-13.079a.934.934,0,1,1,.934.933.935.935,0,0,1-.934-.933Zm.934,5.025a2.45,2.45,0,0,1,2.418,2.076h-4.835A2.449,2.449,0,0,1,794,469.776ZM778.738,480.99a2.449,2.449,0,0,1,2.076-2.418v4.835a2.45,2.45,0,0,1-2.076-2.418Zm27.71,3.908a4.707,4.707,0,0,1-4.7,4.7H786.253a4.707,4.707,0,0,1-4.7-4.7v-7.606a4.707,4.707,0,0,1,4.7-4.7h15.493a4.706,4.706,0,0,1,4.7,4.7Zm.738-1.491v-4.835a2.446,2.446,0,0,1,0,4.835Zm0,0"/>
  </g>
</svg>
