<svg xmlns="http://www.w3.org/2000/svg" width="160" height="160" viewBox="0 0 160 160">
  <g id="Group_154" data-name="Group 154" transform="translate(-105 -229.889)">
    <g id="Group_153" data-name="Group 153" transform="translate(105 229.889)">
      <path id="Path_140" data-name="Path 140" d="M265,309.889a80,80,0,1,1-80-80,80,80,0,0,1,80,80Zm0,0" transform="translate(-105 -229.889)" fill="#e5eee7"/>
      <path id="Path_141" data-name="Path 141" d="M219.472,436.266a80,80,0,0,0,80-80q0-2.173-.117-4.318L256.8,309.393,164.094,405.7,188.4,430.008a79.748,79.748,0,0,0,31.071,6.258Zm0,0" transform="translate(-139.471 -276.266)" fill="#becec1"/>
      <path id="Path_142" data-name="Path 142" d="M219.472,272.955l-55.378,42.622,55.378,3.226L241.5,293.768Zm0,0" transform="translate(-139.471 -255.011)" fill="#f5f2f1"/>
      <path id="Path_143" data-name="Path 143" d="M297,272.955V318.8l55.379-3.226Zm0,0" transform="translate(-217 -255.011)" fill="#dbd1cc"/>
      <path id="Path_144" data-name="Path 144" d="M219.472,375.248H164.094v68.869h55.378L241.5,408.876Zm0,0" transform="translate(-139.471 -314.682)" fill="#fff"/>
      <rect id="Rectangle_650" data-name="Rectangle 650" width="55.378" height="68.869" transform="translate(80 60.566)" fill="#f5f2f1"/>
      <path id="Path_145" data-name="Path 145" d="M266.163,375.248h55.379l-18.052,33.478L266.163,405.5l-22.026-13.9Zm0,0" transform="translate(-186.163 -314.682)" fill="#becec1"/>
      <path id="Path_146" data-name="Path 146" d="M164.094,375.248h55.378V405.5l-37.326,3.228Zm0,0" transform="translate(-139.471 -314.682)" fill="#becec1"/>
      <path id="Path_147" data-name="Path 147" d="M244.744,309.393H207.418v60.918h37.326l14.847-31.173Zm0,0" transform="translate(-164.744 -276.266)" fill="#006400"/>
      <rect id="Rectangle_651" data-name="Rectangle 651" width="37.328" height="60.918" transform="translate(80 33.127)" fill="#025402"/>
      <path id="Path_148" data-name="Path 148" d="M358.641,327.735l-3.1,1.289-1.288,3.1-1.287-3.1-3.1-1.289,3.1-1.288,1.287-3.1,1.288,3.1Zm0,0" transform="translate(-247.837 -284.406)" fill="#fc0"/>
      <path id="Path_149" data-name="Path 149" d="M228.791,424.939l-3.1,1.287-1.288,3.1-1.287-3.1-3.1-1.287,3.1-1.289,1.287-3.1,1.288,3.1Zm0,0" transform="translate(-172.091 -341.107)" fill="#fd5"/>
      <path id="Path_150" data-name="Path 150" d="M316.878,341.79l-1.668,7.092-8.79,2.93-7.383-5.905v-8.7l8.426-3.37a22.61,22.61,0,0,1,9.415,7.955Z" transform="translate(-218.188 -290.524)" fill="#fd5"/>
      <path id="Path_151" data-name="Path 151" d="M324.97,389.877l-7.958,1.256-4.333-5.724,2.208-8.827,8.692-2.9,4.98,5.975a22.328,22.328,0,0,1-3.588,10.217Z" transform="translate(-226.145 -313.77)" fill="#fd5"/>
      <path id="Path_152" data-name="Path 152" d="M255.016,391.135l-7.993-1.262a22.327,22.327,0,0,1-3.588-10.219l4.976-5.975,8.692,2.9,2.207,8.832Z" transform="translate(-185.754 -313.766)" fill="#fd5"/>
      <path id="Path_153" data-name="Path 153" d="M243.2,367.916a22.329,22.329,0,0,1,2.633-10.255l1.3,5.537Z" transform="translate(-185.618 -304.423)" fill="#fd5"/>
      <path id="Path_154" data-name="Path 154" d="M282.153,380.417l-2.129-8.524,7.12-5.7,7.121,5.7-2.13,8.522Z" transform="translate(-207.097 -309.403)" fill="#fd5"/>
      <path id="Path_155" data-name="Path 155" d="M341.577,363.191l1.3-5.537a22.32,22.32,0,0,1,2.633,10.255Z" transform="translate(-243.003 -304.419)" fill="#fd5"/>
      <path id="Path_156" data-name="Path 156" d="M294.242,330.2l-7.04,2.816-7.078-2.8a22.388,22.388,0,0,1,14.117-.013Z" transform="translate(-207.156 -287.742)" fill="#fd5"/>
      <path id="Path_157" data-name="Path 157" d="M261.743,333.88l8.464,3.354v8.7l-7.383,5.905-8.79-2.93-1.669-7.092a22.613,22.613,0,0,1,9.377-7.936Z" transform="translate(-190.963 -290.55)" fill="#fd5"/>
      <path id="Path_158" data-name="Path 158" d="M255.263,416.952l6.523,1.03,3.945,6.179a22.54,22.54,0,0,1-10.468-7.21Z" transform="translate(-192.653 -339.009)" fill="#fd5"/>
      <path id="Path_159" data-name="Path 159" d="M279.2,417.327l-4.788-7.5,4.24-5.654h10.432l4.3,5.682-4.173,7.313a22.4,22.4,0,0,1-10.012.161Z" transform="translate(-203.826 -331.556)" fill="#fd5"/>
      <path id="Path_160" data-name="Path 160" d="M315.288,423.953l3.42-5.985,6.446-1.017a22.555,22.555,0,0,1-9.866,7Z" transform="translate(-227.668 -339.008)" fill="#fd5"/>
      <path id="Path_161" data-name="Path 161" d="M315.288,433.756" transform="translate(-227.668 -348.811)" fill="#fd5"/>
    </g>
    <line id="Line_9" data-name="Line 9" x1="70.428" y2="56.822" transform="translate(149.758 265.028)" fill="none" stroke="#fff" stroke-linecap="round" stroke-miterlimit="10" stroke-width="6"/>
    <line id="Line_10" data-name="Line 10" x1="70.206" y1="57.096" transform="translate(149.868 264.891)" fill="none" stroke="#fff" stroke-linecap="round" stroke-miterlimit="10" stroke-width="6"/>
  </g>
</svg>
