<svg xmlns="http://www.w3.org/2000/svg" width="16.5" height="16.833" viewBox="0 0 16.5 16.833">
  <path id="check-mark" d="M11.9,5.747a.667.667,0,0,1,0,.93L7.573,11.088a.636.636,0,0,1-.912,0L4.6,8.988a.667.667,0,0,1,0-.93.635.635,0,0,1,.911,0l1.6,1.635,3.868-3.947a.636.636,0,0,1,.912,0Zm4.6,2.671A8.81,8.81,0,0,1,15.411,12.6,8.1,8.1,0,0,1,8.25,16.834,8.33,8.33,0,0,1,0,8.417,8.33,8.33,0,0,1,8.25,0,8.357,8.357,0,0,1,16.02,5.582,8.12,8.12,0,0,1,16.5,8.417Zm-1.289,0a7.028,7.028,0,0,0-6.961-7.1,7.028,7.028,0,0,0-6.961,7.1,7.028,7.028,0,0,0,6.961,7.1A7.028,7.028,0,0,0,15.21,8.417Zm0,0" transform="translate(0 0)" fill="#fff"/>
</svg>
