<svg xmlns="http://www.w3.org/2000/svg" width="14.968" height="11.226" viewBox="0 0 14.968 11.226">
  <path id="Path_115" data-name="Path 115" d="M14.656,75.226a.312.312,0,0,1-.312-.312c0-1.325-2.994-2.741-7.484-2.8v2.181a.937.937,0,0,1-.936.936.924.924,0,0,1-.63-.25l-.4-.372C3.568,73.378,1.35,71.326.216,70.189a.876.876,0,0,1,0-1.151C1.35,67.9,3.568,65.848,4.893,64.623l.4-.372a.924.924,0,0,1,.63-.25.937.937,0,0,1,.936.936v2.188c4.5.152,8.108,3.589,8.108,7.791A.312.312,0,0,1,14.656,75.226Zm-8.731-10.6a.3.3,0,0,0-.206.084l-.4.373C3.995,66.3,1.783,68.349.658,69.478a.286.286,0,0,0,0,.271c1.126,1.129,3.337,3.174,4.659,4.4l.4.373a.3.3,0,0,0,.206.084.312.312,0,0,0,.312-.312V71.8a.312.312,0,0,1,.312-.312c3.418,0,6.3.79,7.63,1.955a7.683,7.683,0,0,0-7.63-5.7.312.312,0,0,1-.312-.312V64.936A.312.312,0,0,0,5.925,64.624Z" transform="translate(0 -64)"/>
</svg>
