<svg xmlns="http://www.w3.org/2000/svg" width="45.63" height="43.133" viewBox="0 0 45.63 43.133">
  <path id="close" d="M27,21.7l17.767-16.8a2.684,2.684,0,0,0,0-3.951,3.075,3.075,0,0,0-4.18,0l-17.768,16.8L5.047.955a3.075,3.075,0,0,0-4.18,0,2.684,2.684,0,0,0,0,3.951L9.639,13.2l9,8.5L.867,38.5a2.684,2.684,0,0,0,0,3.951,3.037,3.037,0,0,0,2.09.819,3.037,3.037,0,0,0,2.09-.819l17.767-16.8,17.768,16.8a3.077,3.077,0,0,0,4.18,0,2.684,2.684,0,0,0,0-3.951Zm0,0" transform="translate(0 -0.136)" fill="#fff"/>
</svg>
