<svg xmlns="http://www.w3.org/2000/svg" xmlns:xlink="http://www.w3.org/1999/xlink" width="147" height="143" viewBox="0 0 147 143">
  <defs>
    <filter id="Ellipse_92" x="0" y="0" width="147" height="143" filterUnits="userSpaceOnUse">
      <feOffset dy="3" input="SourceAlpha"/>
      <feGaussianBlur stdDeviation="12" result="blur"/>
      <feFlood flood-opacity="0.231"/>
      <feComposite operator="in" in2="blur"/>
      <feComposite in="SourceGraphic"/>
    </filter>
    <clipPath id="clip-path">
      <path id="Path_116" data-name="Path 116" d="M13.215,11.5l9.43-9.431A1.212,1.212,0,1,0,20.931.355L11.5,9.785,2.069.355A1.212,1.212,0,0,0,.355,2.069L9.785,11.5.355,20.931a1.212,1.212,0,1,0,1.714,1.714l9.431-9.43,9.431,9.43a1.212,1.212,0,1,0,1.714-1.714Z" transform="translate(0 0)" fill="#fff" clip-rule="evenodd"/>
    </clipPath>
    <clipPath id="clip-path-2">
      <rect id="Rectangle_636" data-name="Rectangle 636" width="4122" height="16232" fill="#fff"/>
    </clipPath>
  </defs>
  <g id="Group_1158" data-name="Group 1158" transform="translate(-1133 -661.667)">
    <g transform="matrix(1, 0, 0, 1, 1133, 661.67)" filter="url(#Ellipse_92)">
      <ellipse id="Ellipse_92-2" data-name="Ellipse 92" cx="37.5" cy="35.5" rx="37.5" ry="35.5" transform="translate(36 33)" fill="#006400"/>
    </g>
    <g id="Group_142" data-name="Group 142" transform="translate(1195 718.833)">
      <g id="Group_141" data-name="Group 141" clip-path="url(#clip-path)">
        <g id="Group_140" data-name="Group 140" transform="translate(-2646.5 -2629.5)">
          <g id="Group_139" data-name="Group 139" transform="translate(0 0)" clip-path="url(#clip-path-2)">
            <rect id="Rectangle_635" data-name="Rectangle 635" width="28" height="28" transform="translate(2643 2628)" fill="#fff"/>
          </g>
        </g>
      </g>
    </g>
  </g>
</svg>
