<svg xmlns="http://www.w3.org/2000/svg" width="160" height="160" viewBox="0 0 160 160">
  <g id="Group_188" data-name="Group 188" transform="translate(92.631 -37.883)">
    <circle id="Ellipse_93" data-name="Ellipse 93" cx="80" cy="80" r="80" transform="translate(-92.631 37.883)" fill="#006400" opacity="0.1"/>
    <g id="Group_187" data-name="Group 187" transform="translate(-52.293 87.554)">
      <path id="Path_210" data-name="Path 210" d="M110.519,301.667h.585a7.882,7.882,0,0,0,7.873-7.873v-1.459h-4.666v1.459A3.211,3.211,0,0,1,111.1,297h-.585a3.211,3.211,0,0,1-3.207-3.207v-7.583A3.211,3.211,0,0,1,110.519,283h.585a3.211,3.211,0,0,1,3.207,3.207v1.458h4.666v-1.458a7.882,7.882,0,0,0-7.873-7.874h-.585a7.882,7.882,0,0,0-7.873,7.874v7.583a7.882,7.882,0,0,0,7.873,7.873Zm0,0" transform="translate(-102.646 -278.337)"/>
      <path id="Path_211" data-name="Path 211" d="M212.167,301.667h.584a7.883,7.883,0,0,0,7.874-7.873v-7.583a7.883,7.883,0,0,0-7.874-7.874h-.584a7.882,7.882,0,0,0-7.873,7.874v7.583a7.882,7.882,0,0,0,7.873,7.873Zm-3.208-15.456A3.211,3.211,0,0,1,212.167,283h.584a3.211,3.211,0,0,1,3.207,3.207v7.583A3.211,3.211,0,0,1,212.751,297h-.584a3.211,3.211,0,0,1-3.208-3.207Zm0,0" transform="translate(-183.297 -278.337)"/>
      <path id="Path_212" data-name="Path 212" d="M322.27,293.794v-7.583a7.882,7.882,0,0,0-7.873-7.874h-8.458v23.33H314.4a7.882,7.882,0,0,0,7.873-7.873ZM310.605,283H314.4a3.211,3.211,0,0,1,3.208,3.207v7.583A3.211,3.211,0,0,1,314.4,297h-3.792Zm0,0" transform="translate(-263.945 -278.337)"/>
      <path id="Path_213" data-name="Path 213" d="M423.918,283v-4.666H407.587v23.33h16.331V297H412.253v-4.666h8.554v-4.666h-8.554V283Zm0,0" transform="translate(-344.595 -278.337)"/>
      <path id="Path_214" data-name="Path 214" d="M172.637,418.534h-4.666v-4.666h-9.332v4.666h-4.666v-4.666H144.64v4.666h-4.666v-4.666h-9.332v4.666h-4.666v-4.666h-9.332v4.666h-4.666v-4.666h-9.332V423.2h4.666v4.666h-4.666v4.666h4.666V437.2h-4.666v9.332h9.332v-4.666h4.666v4.666h9.332v-4.666h4.666v4.666h9.332v-4.666h4.666v4.666h9.332v-4.666h4.666v4.666h9.332v-4.666h4.666v4.666h9.332V437.2H177.3v-4.666h4.666v-4.666H177.3V423.2h4.666v-9.332h-9.332Zm-44.445,15.247-3.3,3.3-3.3-3.3-3.3,3.3-3.3-3.3,3.3-3.3-3.3-3.3,3.3-3.3,3.3,3.3,3.3-3.3,3.3,3.3-3.3,3.3Zm20.82,0-3.3,3.3-3.3-3.3-3.3,3.3-3.3-3.3,3.3-3.3-3.3-3.3,3.3-3.3,3.3,3.3,3.3-3.3,3.3,3.3-3.3,3.3Zm20.609,0-3.3,3.3-3.3-3.3-3.3,3.3-3.3-3.3,3.3-3.3-3.3-3.3,3.3-3.3,3.3,3.3,3.3-3.3,3.3,3.3-3.3,3.3Zm0,0" transform="translate(-102.646 -385.871)" fill="#006400"/>
    </g>
  </g>
</svg>
