<svg xmlns="http://www.w3.org/2000/svg" xmlns:xlink="http://www.w3.org/1999/xlink" width="18" height="22" viewBox="0 0 18 22">
  <defs>
    <clipPath id="clip-path">
      <rect id="Rectangle_629" data-name="Rectangle 629" width="18" height="22" transform="translate(0.308 0)" fill="#212121"/>
    </clipPath>
  </defs>
  <g id="Group_128" data-name="Group 128" transform="translate(-0.308 0)">
    <g id="Group_127" data-name="Group 127" transform="translate(0 0)" clip-path="url(#clip-path)">
      <path id="Path_110" data-name="Path 110" d="M106.1,170.858l-.491-1.471a1.369,1.369,0,0,0-1.3-.937h-4.125v-1.343a1.219,1.219,0,0,0-1.217-1.218H95.189a1.219,1.219,0,0,0-1.217,1.218v1.343H89.847a1.369,1.369,0,0,0-1.3.937l-.491,1.471a1.1,1.1,0,0,0,1.045,1.45h.513l1.129,13.964a2.02,2.02,0,0,0,2,1.848h8.895a2.02,2.02,0,0,0,2-1.848l1.129-13.964h.284a1.1,1.1,0,0,0,1.045-1.45Zm-10.825-3.666h3.606v1.258H95.275Zm7.069,18.975a.71.71,0,0,1-.7.65H92.745a.71.71,0,0,1-.7-.65l-1.121-13.859h12.544ZM89.38,171.005l.4-1.207a.068.068,0,0,1,.064-.046h14.462a.068.068,0,0,1,.064.046l.4,1.207Zm0,0" transform="translate(-87.576 -165.889)" fill="#212121"/>
    </g>
  </g>
</svg>
