<svg width="420" height="420" viewBox="0 0 420 420" fill="none" xmlns="http://www.w3.org/2000/svg">
<g clip-path="url(#clip0)">
<path d="M158 173.2C173.906 173.2 186.8 160.306 186.8 144.4C186.8 128.494 173.906 115.6 158 115.6C142.094 115.6 129.2 128.494 129.2 144.4C129.2 160.306 142.094 173.2 158 173.2Z" fill="#ABABAB"/>
<path d="M394.4 250.4C380.8 237.6 363.6 229.2 344.8 226.8V80.4C344.8 64.8 338.4 50.8 328.4 40.4C318 30 304 24 288.4 24H56.4C40.8 24 26.8 30.4 16.4 40.4C6 50.8 0 64.8 0 80.4V264.8V282V319.2C0 334.8 6.4 348.8 16.4 359.2C26.8 369.6 40.8 375.6 56.4 375.6H280.8C295.6 387.6 314 395.2 334.4 395.2C358 395.2 379.2 385.6 394.4 370.4C409.6 355.2 419.2 334 419.2 310.4C419.2 286.8 409.6 265.6 394.4 250.4ZM21.2 80.4C21.2 70.8 25.2 62 31.6 56C38 49.6 46.8 45.6 56.4 45.6H288.4C298 45.6 306.8 49.6 313.2 56C319.6 62.4 323.6 71.2 323.6 80.8V205.6L264.4 146.4C260.4 142.4 253.6 142 249.2 146.4L160 236L99.6 175.2C95.6 171.2 88.8 170.8 84.4 175.2L21.2 239.2V80.4V80.4ZM56 355.2V354.4C46.4 354.4 37.6 350.4 31.2 344C25.2 337.6 21.2 328.8 21.2 319.2V282V269.6L92 198.4L152.4 258.8C156.4 262.8 163.2 262.8 167.6 258.8L256.8 169.2L315.2 228C314 228.4 312.8 228.8 311.6 229.2C310 229.6 308.4 230 306.4 230.8C304.8 231.2 303.2 232 301.6 232.4C300.4 232.8 299.6 233.2 298.4 234C296.8 234.8 295.6 235.2 294.4 236C292.4 237.2 290.4 238.4 288.4 239.6C287.2 240.4 286.4 240.8 285.2 241.6C284.4 242 284 242.4 283.2 242.8C279.6 245.2 276.4 248 273.6 251.2C258.4 266.4 248.8 287.6 248.8 311.2C248.8 317.2 249.6 322.8 250.8 328.8C251.2 330.4 251.6 331.6 252 333.2C253.2 337.2 254.4 341.2 256 345.2V345.6C257.6 348.8 259.2 352.4 261.2 355.2H56V355.2ZM378.8 355.2C367.2 366.8 351.6 373.6 334 373.6C317.2 373.6 301.6 366.8 290.4 356C288.8 354.4 287.2 352.4 285.6 350.8C284.4 349.6 283.2 348 282 346.8C280.4 344.8 279.2 342.4 278 340C277.2 338.4 276.4 337.2 275.6 335.6C274.8 333.6 274 331.2 273.6 328.8C273.2 327.2 272.4 325.2 272 323.6C271.2 319.6 270.8 315.2 270.8 310.8C270.8 293.2 278 277.6 289.2 266C300.4 254.4 316.4 247.6 334 247.6C351.6 247.6 367.2 254.8 378.8 266C390.4 277.6 397.2 293.2 397.2 310.8C397.2 328 390 343.6 378.8 355.2Z" fill="#ABABAB"/>
<path d="M341.6 267.6C340.8 266.8 339.6 266 338 265.2C336.8 264.8 335.6 264.4 334.4 264.4C334 264.4 334 264.4 334 264.4C333.6 264.4 333.6 264.4 333.6 264.4C332.4 264.4 331.2 264.8 330 265.2C328.8 265.6 327.6 266.4 326.4 267.6L301.6 292.4C297.6 296.4 297.6 303.2 301.6 307.6C305.6 311.6 312.4 311.6 316.8 307.6L323.2 301.2V345.2C323.2 351.2 328 356 334 356C340 356 344.8 351.2 344.8 345.2V301.2L351.2 307.6C355.2 311.6 362 311.6 366.4 307.6C370.4 303.6 370.4 296.8 366.4 292.4L341.6 267.6Z" fill="#ABABAB"/>
</g>
<defs>
<clipPath id="clip0">
<rect width="419.2" height="419.2" fill="white"/>
</clipPath>
</defs>
</svg>
