<svg xmlns="http://www.w3.org/2000/svg" xmlns:xlink="http://www.w3.org/1999/xlink" width="531" height="90" viewBox="0 0 531 90">
  <defs>
    <clipPath id="clip-path">
      <path id="Rectangle_595" data-name="Rectangle 595" d="M15,0H516a15,15,0,0,1,15,15V90a0,0,0,0,1,0,0H0a0,0,0,0,1,0,0V15A15,15,0,0,1,15,0Z" transform="translate(375 143)" fill="#e5eee7"/>
    </clipPath>
  </defs>
  <g id="Mask_Group_4" data-name="Mask Group 4" transform="translate(-375 -143)" clip-path="url(#clip-path)">
    <g id="Group_87" data-name="Group 87" transform="translate(599.282 -185.222)" style="mix-blend-mode: overlay;isolation: isolate">
      <path id="Path_89" data-name="Path 89" d="M142.839,229.889h0a4.946,4.946,0,0,0-4.946,4.946V344.313a4.946,4.946,0,0,1-4.946,4.946h0A4.946,4.946,0,0,0,128,354.206v19.785a4.946,4.946,0,0,0,4.946,4.946h0a4.946,4.946,0,0,1,4.946,4.946v9.893a4.946,4.946,0,0,0,4.946,4.946h0a4.946,4.946,0,0,0,4.946-4.946v-9.893a4.946,4.946,0,0,1,4.946-4.946h0a4.946,4.946,0,0,0,4.946-4.946V354.206a4.946,4.946,0,0,0-4.946-4.946h0a4.946,4.946,0,0,1-4.946-4.946V234.835A4.946,4.946,0,0,0,142.839,229.889Zm0,139.156h0a4.946,4.946,0,0,1-4.946-4.946h0a4.946,4.946,0,0,1,4.946-4.946h0a4.946,4.946,0,0,1,4.946,4.946h0A4.946,4.946,0,0,1,142.839,369.045Zm4.946,0"/>
      <path id="Path_90" data-name="Path 90" d="M423.481,349.259h0a4.946,4.946,0,0,1-4.946-4.946V234.835a4.946,4.946,0,0,0-4.946-4.946h0a4.946,4.946,0,0,0-4.946,4.946V344.313a4.946,4.946,0,0,1-4.946,4.946h0a4.946,4.946,0,0,0-4.946,4.946v19.785a4.946,4.946,0,0,0,4.946,4.946h0a4.946,4.946,0,0,1,4.946,4.946v9.893a4.946,4.946,0,0,0,4.946,4.946h0a4.946,4.946,0,0,0,4.946-4.946v-9.893a4.946,4.946,0,0,1,4.946-4.946h0a4.946,4.946,0,0,0,4.946-4.946V354.206A4.946,4.946,0,0,0,423.481,349.259Zm-9.893,19.785h0a4.946,4.946,0,0,1-4.946-4.946h0a4.946,4.946,0,0,1,4.946-4.946h0a4.946,4.946,0,0,1,4.946,4.946h0A4.946,4.946,0,0,1,413.589,369.045Zm4.946,0" transform="translate(-151.709)"/>
      <path id="Path_91" data-name="Path 91" d="M323.589,229.889h0a4.946,4.946,0,0,0-4.946,4.946v63.313a4.946,4.946,0,0,1-4.946,4.946h0a4.946,4.946,0,0,0-4.946,4.946v19.785a4.946,4.946,0,0,0,4.946,4.946h0a4.946,4.946,0,0,1,4.946,4.946v56.058a4.946,4.946,0,0,0,4.946,4.946h0a4.946,4.946,0,0,0,4.946-4.946V337.718a4.946,4.946,0,0,1,4.946-4.946h0a4.946,4.946,0,0,0,4.946-4.946V308.04a4.946,4.946,0,0,0-4.946-4.946h0a4.946,4.946,0,0,1-4.946-4.946V234.835A4.946,4.946,0,0,0,323.589,229.889Zm0,92.99h0a4.946,4.946,0,0,1-4.946-4.946h0a4.946,4.946,0,0,1,4.946-4.946h0a4.946,4.946,0,0,1,4.946,4.946h0A4.946,4.946,0,0,1,323.589,322.879Zm4.946,0" transform="translate(-101.28)"/>
      <path id="Path_92" data-name="Path 92" d="M232.839,229.889h0a4.946,4.946,0,0,0-4.946,4.946v7.8a4.946,4.946,0,0,1-4.946,4.946h0A4.946,4.946,0,0,0,218,252.527v19.785a4.946,4.946,0,0,0,4.946,4.946h0a4.946,4.946,0,0,1,4.946,4.946V393.776a4.946,4.946,0,0,0,4.946,4.946h0a4.946,4.946,0,0,0,4.946-4.946V282.2a4.946,4.946,0,0,1,4.946-4.946h0a4.946,4.946,0,0,0,4.946-4.946V252.527a4.946,4.946,0,0,0-4.946-4.946h0a4.946,4.946,0,0,1-4.946-4.946v-7.8A4.946,4.946,0,0,0,232.839,229.889Zm0,37.477h0a4.946,4.946,0,0,1-4.946-4.946h0a4.946,4.946,0,0,1,4.946-4.946h0a4.946,4.946,0,0,1,4.946,4.946h0A4.946,4.946,0,0,1,232.839,267.366Zm4.946,0" transform="translate(-50.43)"/>
    </g>
  </g>
</svg>
