<svg xmlns="http://www.w3.org/2000/svg" width="19.379" height="22" viewBox="0 0 19.379 22">
  <g id="Group_1152" data-name="Group 1152" transform="translate(-128 -229.889)" opacity="0.4">
    <path id="Path_19" data-name="Path 19" d="M129.934,229.889h0a.645.645,0,0,0-.645.645V244.8a.645.645,0,0,1-.645.645h0a.645.645,0,0,0-.645.645v2.578a.645.645,0,0,0,.645.645h0a.645.645,0,0,1,.645.645v1.289a.645.645,0,0,0,.645.645h0a.645.645,0,0,0,.645-.645v-1.289a.645.645,0,0,1,.645-.645h0a.645.645,0,0,0,.645-.645v-2.578a.645.645,0,0,0-.645-.645h0a.645.645,0,0,1-.645-.645V230.534A.645.645,0,0,0,129.934,229.889Zm0,18.133h0a.645.645,0,0,1-.645-.645h0a.645.645,0,0,1,.645-.645h0a.645.645,0,0,1,.645.645h0A.645.645,0,0,1,129.934,248.022Zm.645,0"/>
    <path id="Path_20" data-name="Path 20" d="M401.973,245.444h0a.645.645,0,0,1-.645-.645V230.534a.645.645,0,0,0-.645-.645h0a.645.645,0,0,0-.645.645V244.8a.645.645,0,0,1-.645.645h0a.645.645,0,0,0-.645.645v2.578a.645.645,0,0,0,.645.645h0a.645.645,0,0,1,.645.645v1.289a.645.645,0,0,0,.645.645h0a.645.645,0,0,0,.645-.645v-1.289a.645.645,0,0,1,.645-.645h0a.645.645,0,0,0,.645-.645v-2.578A.645.645,0,0,0,401.973,245.444Zm-1.289,2.578h0a.645.645,0,0,1-.645-.645h0a.645.645,0,0,1,.645-.645h0a.645.645,0,0,1,.645.645h0A.645.645,0,0,1,400.684,248.022Zm.645,0" transform="translate(-255.238)"/>
    <path id="Path_21" data-name="Path 21" d="M310.684,229.889h0a.645.645,0,0,0-.645.645v8.25a.645.645,0,0,1-.645.645h0a.645.645,0,0,0-.645.645v2.578a.645.645,0,0,0,.645.645h0a.645.645,0,0,1,.645.645v7.3a.645.645,0,0,0,.645.645h0a.645.645,0,0,0,.645-.645v-7.3a.645.645,0,0,1,.645-.645h0a.645.645,0,0,0,.645-.645v-2.578a.645.645,0,0,0-.645-.645h0a.645.645,0,0,1-.645-.645v-8.25A.645.645,0,0,0,310.684,229.889Zm0,12.117h0a.645.645,0,0,1-.645-.645h0a.645.645,0,0,1,.645-.645h0a.645.645,0,0,1,.645.645h0A.645.645,0,0,1,310.684,242.006Zm.645,0" transform="translate(-170.395)"/>
    <path id="Path_22" data-name="Path 22" d="M219.934,229.889h0a.645.645,0,0,0-.645.645v1.016a.645.645,0,0,1-.645.645h0a.645.645,0,0,0-.645.645v2.578a.645.645,0,0,0,.645.645h0a.645.645,0,0,1,.645.645v14.538a.645.645,0,0,0,.645.645h0a.645.645,0,0,0,.645-.645V236.706a.645.645,0,0,1,.645-.645h0a.645.645,0,0,0,.645-.645v-2.578a.645.645,0,0,0-.645-.645h0a.645.645,0,0,1-.645-.645v-1.016A.645.645,0,0,0,219.934,229.889Zm0,4.883h0a.645.645,0,0,1-.645-.645h0a.645.645,0,0,1,.645-.645h0a.645.645,0,0,1,.645.645h0A.645.645,0,0,1,219.934,234.772Zm.645,0" transform="translate(-84.844)"/>
  </g>
</svg>
