<svg xmlns="http://www.w3.org/2000/svg" width="20.545" height="20.545" viewBox="0 0 20.545 20.545"><defs><style>.a{opacity:0.4;}.b{fill:#212121;}</style></defs><g class="a"><path class="b" d="M66.047,181.889a9.047,9.047,0,1,0,9.047,9.047A9.047,9.047,0,0,0,66.047,181.889Zm8.442,8.934L73.01,189.05l.489-2.081A8.389,8.389,0,0,1,74.489,190.823Zm-1.435-4.594-.627,2.665-3.3,1.1-2.775-2.219v-3.27l3.167-1.267A8.5,8.5,0,0,1,73.054,186.229Zm-4.33,4.219-.8,3.2H64.172l-.8-3.2,2.676-2.14Zm-.03-7.529-2.646,1.058-2.66-1.053A8.414,8.414,0,0,1,68.693,182.919Zm-6.128.327,3.181,1.261v3.269L62.971,190l-3.3-1.1-.627-2.665A8.5,8.5,0,0,1,62.565,183.246ZM58.6,186.97l.489,2.081-1.479,1.773A8.39,8.39,0,0,1,58.6,186.97Zm-.953,4.754,1.87-2.246,3.267,1.089.83,3.319-1.614,2.152-3-.474A8.39,8.39,0,0,1,57.642,191.724Zm1.852,4.531,2.452.387,1.483,2.322A8.472,8.472,0,0,1,59.494,196.254Zm4.8,2.943v0l-1.8-2.817,1.594-2.125h3.921l1.616,2.135-1.568,2.748A8.418,8.418,0,0,1,64.293,199.2Zm4.6-.312,1.285-2.249,2.422-.382A8.477,8.477,0,0,1,68.894,198.886Zm4.211-3.322-2.991.472-1.628-2.151.83-3.317,3.267-1.089,1.871,2.246A8.389,8.389,0,0,1,73.1,195.564Z" transform="translate(-55.775 -180.664)"/><path class="b" d="M372.5,632.76" transform="translate(-359.385 -614.538)"/><ellipse class="b" cy="0.514" ry="0.514" transform="translate(10.273)"/><ellipse class="b" cy="0.514" ry="0.514" transform="translate(10.273 19.518)"/><g transform="translate(10.273)"><ellipse class="b" cy="0.514" ry="0.514"/><ellipse class="b" cy="0.514" ry="0.514" transform="translate(0 19.518)"/></g><g transform="translate(8.878 0.054)"><ellipse class="b" cx="0.358" cy="0.358" rx="0.358" ry="0.358" transform="translate(2.073 0)"/><ellipse class="b" cx="0.358" cy="0.358" rx="0.358" ry="0.358" transform="translate(0 19.72)"/></g><g transform="translate(7.853 0.217)"><ellipse class="b" cx="0.358" cy="0.358" rx="0.358" ry="0.358" transform="translate(4.123 0)"/><ellipse class="b" cx="0.358" cy="0.358" rx="0.358" ry="0.358" transform="translate(0 19.396)"/></g><g transform="translate(6.851 0.485)"><ellipse class="b" cx="0.358" cy="0.358" rx="0.358" ry="0.358" transform="translate(6.127 0)"/><ellipse class="b" cx="0.358" cy="0.358" rx="0.358" ry="0.358" transform="translate(0 18.858)"/></g><g transform="translate(5.882 0.857)"><ellipse class="b" cx="0.358" cy="0.358" rx="0.358" ry="0.358" transform="translate(8.065 0)"/><ellipse class="b" cx="0.358" cy="0.358" rx="0.358" ry="0.358" transform="translate(0 18.115)"/></g><g transform="translate(4.957 1.328)"><ellipse class="b" cx="0.358" cy="0.358" rx="0.358" ry="0.358" transform="translate(9.914 0)"/><ellipse class="b" cx="0.358" cy="0.358" rx="0.358" ry="0.358" transform="translate(0 17.172)"/></g><g transform="translate(4.087 1.893)"><ellipse class="b" cx="0.358" cy="0.358" rx="0.358" ry="0.358" transform="translate(11.655)"/><ellipse class="b" cx="0.358" cy="0.358" rx="0.358" ry="0.358" transform="translate(0 16.042)"/></g><g transform="translate(3.28 2.547)"><ellipse class="b" cx="0.358" cy="0.358" rx="0.358" ry="0.358" transform="translate(13.268)"/><ellipse class="b" cx="0.358" cy="0.358" rx="0.358" ry="0.358" transform="translate(0 14.736)"/></g><g transform="translate(2.547 3.28)"><ellipse class="b" cx="0.358" cy="0.358" rx="0.358" ry="0.358" transform="translate(14.736)"/><ellipse class="b" cx="0.358" cy="0.358" rx="0.358" ry="0.358" transform="translate(0 13.268)"/></g><g transform="translate(1.894 4.087)"><ellipse class="b" cx="0.358" cy="0.358" rx="0.358" ry="0.358" transform="translate(16.042 0)"/><ellipse class="b" cx="0.358" cy="0.358" rx="0.358" ry="0.358" transform="translate(0 11.655)"/></g><g transform="translate(1.328 4.957)"><ellipse class="b" cx="0.358" cy="0.358" rx="0.358" ry="0.358" transform="translate(17.172)"/><ellipse class="b" cx="0.358" cy="0.358" rx="0.358" ry="0.358" transform="translate(0 9.914)"/></g><g transform="translate(0.857 5.882)"><ellipse class="b" cx="0.358" cy="0.358" rx="0.358" ry="0.358" transform="translate(18.115 0)"/><ellipse class="b" cx="0.358" cy="0.358" rx="0.358" ry="0.358" transform="translate(0 8.065)"/></g><g transform="translate(0.485 6.851)"><ellipse class="b" cx="0.358" cy="0.358" rx="0.358" ry="0.358" transform="translate(18.858)"/><ellipse class="b" cx="0.358" cy="0.358" rx="0.358" ry="0.358" transform="translate(0 6.127)"/></g><g transform="translate(0.217 7.853)"><ellipse class="b" cx="0.358" cy="0.358" rx="0.358" ry="0.358" transform="translate(19.396 0)"/><ellipse class="b" cx="0.358" cy="0.358" rx="0.358" ry="0.358" transform="translate(0 4.123)"/></g><g transform="translate(0.054 8.878)"><ellipse class="b" cx="0.358" cy="0.358" rx="0.358" ry="0.358" transform="translate(19.72)"/><ellipse class="b" cx="0.358" cy="0.358" rx="0.358" ry="0.358" transform="translate(0 2.073)"/></g><g transform="translate(0 10.273)"><ellipse class="b" cx="0.514" rx="0.514" transform="translate(19.518)"/><ellipse class="b" cx="0.514" rx="0.514"/></g><g transform="translate(0.054 8.878)"><ellipse class="b" cx="0.358" cy="0.358" rx="0.358" ry="0.358" transform="translate(19.72 2.073)"/><ellipse class="b" cx="0.358" cy="0.358" rx="0.358" ry="0.358"/></g><g transform="translate(0.217 7.853)"><ellipse class="b" cx="0.358" cy="0.358" rx="0.358" ry="0.358" transform="translate(19.396 4.123)"/><ellipse class="b" cx="0.358" cy="0.358" rx="0.358" ry="0.358" transform="translate(0 0)"/></g><g transform="translate(0.485 6.851)"><ellipse class="b" cx="0.358" cy="0.358" rx="0.358" ry="0.358" transform="translate(18.858 6.127)"/><ellipse class="b" cx="0.358" cy="0.358" rx="0.358" ry="0.358"/></g><g transform="translate(0.857 5.882)"><ellipse class="b" cx="0.358" cy="0.358" rx="0.358" ry="0.358" transform="translate(18.115 8.065)"/><ellipse class="b" cx="0.358" cy="0.358" rx="0.358" ry="0.358" transform="translate(0 0)"/></g><g transform="translate(1.328 4.957)"><ellipse class="b" cx="0.358" cy="0.358" rx="0.358" ry="0.358" transform="translate(17.172 9.914)"/><ellipse class="b" cx="0.358" cy="0.358" rx="0.358" ry="0.358"/></g><g transform="translate(1.894 4.087)"><ellipse class="b" cx="0.358" cy="0.358" rx="0.358" ry="0.358" transform="translate(16.042 11.655)"/><ellipse class="b" cx="0.358" cy="0.358" rx="0.358" ry="0.358" transform="translate(0 0)"/></g><g transform="translate(2.547 3.28)"><ellipse class="b" cx="0.358" cy="0.358" rx="0.358" ry="0.358" transform="translate(14.736 13.268)"/><ellipse class="b" cx="0.358" cy="0.358" rx="0.358" ry="0.358"/></g><g transform="translate(3.28 2.547)"><ellipse class="b" cx="0.358" cy="0.358" rx="0.358" ry="0.358" transform="translate(13.268 14.736)"/><ellipse class="b" cx="0.358" cy="0.358" rx="0.358" ry="0.358"/></g><g transform="translate(4.087 1.893)"><ellipse class="b" cx="0.358" cy="0.358" rx="0.358" ry="0.358" transform="translate(11.655 16.042)"/><ellipse class="b" cx="0.358" cy="0.358" rx="0.358" ry="0.358"/></g><g transform="translate(4.957 1.328)"><ellipse class="b" cx="0.358" cy="0.358" rx="0.358" ry="0.358" transform="translate(9.914 17.172)"/><ellipse class="b" cx="0.358" cy="0.358" rx="0.358" ry="0.358" transform="translate(0 0)"/></g><g transform="translate(5.882 0.857)"><ellipse class="b" cx="0.358" cy="0.358" rx="0.358" ry="0.358" transform="translate(8.065 18.115)"/><ellipse class="b" cx="0.358" cy="0.358" rx="0.358" ry="0.358" transform="translate(0 0)"/></g><g transform="translate(6.851 0.485)"><ellipse class="b" cx="0.358" cy="0.358" rx="0.358" ry="0.358" transform="translate(6.127 18.858)"/><ellipse class="b" cx="0.358" cy="0.358" rx="0.358" ry="0.358" transform="translate(0 0)"/></g><g transform="translate(7.853 0.217)"><ellipse class="b" cx="0.358" cy="0.358" rx="0.358" ry="0.358" transform="translate(4.123 19.396)"/><ellipse class="b" cx="0.358" cy="0.358" rx="0.358" ry="0.358" transform="translate(0 0)"/></g><g transform="translate(8.878 0.054)"><ellipse class="b" cx="0.358" cy="0.358" rx="0.358" ry="0.358" transform="translate(2.073 19.72)"/><ellipse class="b" cx="0.358" cy="0.358" rx="0.358" ry="0.358" transform="translate(0 0)"/></g></g></svg>