<svg xmlns="http://www.w3.org/2000/svg" width="82" height="26.282" viewBox="0 0 82 26.282">
  <g id="Group_227" data-name="Group 227" transform="translate(-1112 -440.536)">
    <text id="Share" transform="translate(1194 461.818)" fill="#fff" font-size="18" font-family="Roboto-Regular, Roboto"><tspan x="-46.011" y="0">Share</tspan></text>
    <path id="Path_249" data-name="Path 249" d="M33.928,15.262A4.134,4.134,0,0,0,30.6,16.943l-6.494-3.319a4.137,4.137,0,0,0-.135-2.718l6.806-4.089a4.12,4.12,0,1,0-.708-1.184l-6.823,4.1a4.137,4.137,0,1,0,.254,5.131l6.475,3.309a4.137,4.137,0,1,0,3.952-2.911Zm0-13.883a2.758,2.758,0,1,1-2.758,2.758A2.761,2.761,0,0,1,33.928,1.379ZM20.137,15.216A2.758,2.758,0,1,1,22.9,12.458,2.761,2.761,0,0,1,20.137,15.216Zm13.79,6.941A2.758,2.758,0,1,1,36.686,19.4,2.761,2.761,0,0,1,33.928,22.157Z" transform="translate(1096 440.536)" fill="#fff"/>
  </g>
</svg>
