<svg xmlns="http://www.w3.org/2000/svg" width="19.25" height="20.115" viewBox="0 0 19.25 20.115"><defs><style>.a{fill:#006400;}</style></defs><path class="a" d="M46.844,27.921l-8.95-8.642a.671.671,0,0,0-.937,0l-8.95,8.641a.675.675,0,0,0,.469,1.16h1.189v9.448a.675.675,0,0,0,.675.675h4.724a.675.675,0,0,0,.675-.675v-5.4h3.374v5.4a.675.675,0,0,0,.675.675H44.51a.675.675,0,0,0,.675-.675V29.081h1.189a.675.675,0,0,0,.469-1.16Zm-1.658.485a.675.675,0,0,0-.675.675v9.448H39.787v-5.4a.675.675,0,0,0-.675-.675H35.738a.675.675,0,0,0-.675.675v5.4H30.339V29.081a.675.675,0,0,0-.675-.675H28.475l8.95-8.641,8.953,8.641Z" transform="translate(-27.8 -19.089)"/></svg>