<?xml version="1.0" encoding="UTF-8"?>
<svg width="1280px" height="800px" viewBox="0 0 1280 800" version="1.1" xmlns="http://www.w3.org/2000/svg" xmlns:xlink="http://www.w3.org/1999/xlink">
    <title>Mask Group 21 (1)</title>
    <defs>
        <rect id="path-1" x="0" y="0" width="1280" height="800"></rect>
        <rect id="path-3" x="0" y="0" width="1280" height="800"></rect>
    </defs>
    <g id="Page-1" stroke="none" stroke-width="1" fill="none" fill-rule="evenodd">
        <g id="Mask-Group-21-(1)">
            <mask id="mask-2" fill="white">
                <use xlink:href="#path-1"></use>
            </mask>
            <use id="Mask" fill="#E5EEE7" xlink:href="#path-1"></use>
            <g id="bg_12" opacity="0.201780773" mask="url(#mask-2)">
                <rect id="Rectangle_712" fill="#E5EEE7" fill-rule="nonzero" x="0" y="0" width="1280" height="800"></rect>
                <g id="Mask_Group_21-Clipped">
                    <mask id="mask-4" fill="white">
                        <use xlink:href="#path-3"></use>
                    </mask>
                    <g id="Rectangle_711"></g>
                    <g id="Mask_Group_21" mask="url(#mask-4)">
                        <g transform="translate(732.815000, -227.370000)" id="Group_1" style="mix-blend-mode: overlay;">
                            <path d="M333.092,-1.13686838e-13 C149.184,-1.13686838e-13 0,149.184 0,333.092 C0,517 149.184,665.37 333.092,665.37 C517,665.37 666.184,517 666.184,333.092 C665.979,149.271 516.912,0.205 333.092,-1.13686838e-13 Z M591.259,159.626 L567.641,257.355 L446.294,298.075 L344.494,216.634 L344.494,96.1 L460.954,49.679 C513.735132,73.5498613 558.847331,111.614026 591.259,159.626 Z M592.888,503.306 L482.943,520.406 L422.677,441.406 L453.624,319.245 L573.342,279.339 L642.567,361.594 C637.857973,412.18438 620.798885,460.844623 592.888,503.301 L592.888,503.306 Z M184.056,520.406 L73.3,503.303 C45.385694,460.848073 28.3253566,412.187206 23.618,361.596 L92.843,279.341 L212.56,319.247 L243.507,441.408 L184.056,520.406 Z M21.989,328.206 C22.6596123,278.714267 35.2294174,230.11054 58.637,186.499 L76.554,263.053 L21.989,328.206 Z M263.868,432.45 L234.549,314.361 L333.092,236.178 L431.635,314.361 L402.317,432.45 L263.868,432.45 Z M589.631,263.05 L607.548,186.496 C630.886,230.169 642.791,278.682 643.382,328.203 L589.631,263.05 Z M430.007,37.462 L333.093,76.554 L235.364,37.462 C298.535899,16.4013087 366.835101,16.4013087 430.007,37.462 L430.007,37.462 Z M204.416,49.678 L321.691,96.099 L321.691,216.632 L219.891,298.073 L98.544,257.353 L74.925,159.626 C107.109968,111.724368 151.929266,73.6692739 204.416,49.678 Z M92.028,528.55 L182.428,542.395 L236.993,627.908 C180.138516,609.385427 129.814916,574.893745 92.028,528.55 L92.028,528.55 Z M268.754,636.866 L201.973,532.626 L260.61,454.443 L404.76,454.443 L465.026,533.443 L407.2,634.426 C361.826149,645.678778 314.493602,646.513984 268.751,636.869 L268.754,636.866 Z M438.154,625.466 L485.39,542.397 L574.16,528.552 C538.518145,572.662768 491.483883,606.178043 438.154,625.466 L438.154,625.466 Z" id="Path_1" fill="#212121" fill-rule="nonzero"></path>
                        </g>
                    </g>
                </g>
            </g>
            <path d="M40,307 L1240,307 C1262.09139,307 1280,324.90861 1280,347 L1280,800 L1280,800 L0,800 L0,347 C-2.705415e-15,324.90861 17.90861,307 40,307 Z" id="Rectangle" fill="#FFFFFF" mask="url(#mask-2)"></path>
        </g>
    </g>
</svg>