<svg xmlns="http://www.w3.org/2000/svg" width="42.334" height="42.334" viewBox="0 0 42.334 42.334">
  <g id="Group_183" data-name="Group 183" transform="translate(-41 -165.889)">
    <path id="Path_188" data-name="Path 188" d="M256.1,376.94a4.051,4.051,0,1,1-4.051-4.051,4.051,4.051,0,0,1,4.051,4.051Zm0,0" transform="translate(-189.885 -189.885)" fill="#006400"/>
    <path id="Path_189" data-name="Path 189" d="M195.924,304.173a4.025,4.025,0,0,0-2.307-2.307,6.725,6.725,0,0,0-2.257-.418c-1.282-.058-1.666-.071-4.912-.071s-3.63.012-4.912.071a6.729,6.729,0,0,0-2.257.419,4.026,4.026,0,0,0-2.307,2.307,6.728,6.728,0,0,0-.418,2.257c-.058,1.282-.071,1.666-.071,4.912s.013,3.63.071,4.912a6.726,6.726,0,0,0,.418,2.257,4.025,4.025,0,0,0,2.307,2.307,6.717,6.717,0,0,0,2.257.419c1.282.058,1.666.071,4.911.071s3.63-.012,4.912-.071a6.717,6.717,0,0,0,2.257-.419,4.025,4.025,0,0,0,2.307-2.307,6.732,6.732,0,0,0,.419-2.257c.058-1.282.071-1.666.071-4.912s-.012-3.63-.071-4.912a6.717,6.717,0,0,0-.419-2.257Zm-9.475,13.409a6.241,6.241,0,1,1,6.241-6.241,6.241,6.241,0,0,1-6.241,6.241Zm6.488-11.271a1.459,1.459,0,1,1,1.459-1.459,1.459,1.459,0,0,1-1.459,1.459Zm0,0" transform="translate(-124.282 -124.285)" fill="#006400"/>
    <path id="Path_190" data-name="Path 190" d="M62.167,165.889a21.167,21.167,0,1,0,21.167,21.167,21.169,21.169,0,0,0-21.167-21.167Zm12.081,26.178a8.917,8.917,0,0,1-.565,2.95,6.215,6.215,0,0,1-3.555,3.555,8.924,8.924,0,0,1-2.95.565c-1.3.059-1.71.073-5.011.073s-3.715-.014-5.011-.073a8.923,8.923,0,0,1-2.95-.565,6.215,6.215,0,0,1-3.555-3.555,8.915,8.915,0,0,1-.565-2.95c-.06-1.3-.074-1.71-.074-5.011s.014-3.715.073-5.011a8.918,8.918,0,0,1,.565-2.95,6.219,6.219,0,0,1,3.555-3.555,8.926,8.926,0,0,1,2.95-.565c1.3-.059,1.71-.073,5.011-.073s3.715.014,5.011.074a8.928,8.928,0,0,1,2.95.564,6.217,6.217,0,0,1,3.555,3.555,8.916,8.916,0,0,1,.565,2.95c.059,1.3.073,1.71.073,5.011s-.014,3.715-.073,5.011Zm0,0" fill="#006400"/>
  </g>
</svg>
