<svg xmlns="http://www.w3.org/2000/svg" width="62.83" height="60.212" viewBox="0 0 62.83 60.212">
  <g id="like" transform="translate(0 -10.667)">
    <g id="Group_1162" data-name="Group 1162" transform="translate(0 10.667)">
      <g id="Group_1161" data-name="Group 1161">
        <path id="Path_276" data-name="Path 276" d="M62.83,46.663a5.816,5.816,0,0,0-1.7-4.121,6.5,6.5,0,0,0,1.675-5,6.767,6.767,0,0,0-6.827-5.935H39.8a37.64,37.64,0,0,0,2.084-10.472c0-5.678-4.825-10.472-7.854-10.472a8.222,8.222,0,0,0-4.744,1.594,1.31,1.31,0,0,0-.492,1.024v8.877L21.255,38.5l-.312.16v-.5a1.31,1.31,0,0,0-1.309-1.309H6.545A6.551,6.551,0,0,0,0,43.391V64.334a6.55,6.55,0,0,0,6.545,6.545H14.4a6.56,6.56,0,0,0,6.16-4.327,17.066,17.066,0,0,0,6.93,1.71h24.03A6.022,6.022,0,0,0,57.45,63.69a5.91,5.91,0,0,0-.471-3.935A5.868,5.868,0,0,0,59.6,51.9,5.867,5.867,0,0,0,62.83,46.663Zm-5.521,3.23a1.309,1.309,0,0,0-.749,2.254,3.243,3.243,0,0,1-1.866,5.6A1.309,1.309,0,0,0,53.945,60a3.237,3.237,0,0,1,.948,3.123,3.387,3.387,0,0,1-3.375,2.518H27.488c-2.126,0-5.691-1-6.927-2.236a1.31,1.31,0,0,0-2.236.927A3.932,3.932,0,0,1,14.4,68.261H6.545a3.932,3.932,0,0,1-3.927-3.927V43.391a3.932,3.932,0,0,1,3.927-3.927H18.325v1.309a1.315,1.315,0,0,0,.623,1.115,1.338,1.338,0,0,0,1.272.055l2.618-1.309a1.307,1.307,0,0,0,.6-.62L31.294,23a1.333,1.333,0,0,0,.12-.55V13.994a5.52,5.52,0,0,1,2.618-.709c1.435,0,5.236,3.566,5.236,7.854,0,4.608-2.508,11.249-2.531,11.315a1.307,1.307,0,0,0,1.222,1.775H55.974a4.133,4.133,0,0,1,4.22,3.558,3.911,3.911,0,0,1-1.864,3.7,1.311,1.311,0,0,0,.089,2.28,3.241,3.241,0,0,1-1.11,6.123Z" transform="translate(0 -10.667)"/>
      </g>
    </g>
    <g id="Group_1164" data-name="Group 1164" transform="translate(18.325 39.464)">
      <g id="Group_1163" data-name="Group 1163">
        <path id="Path_277" data-name="Path 277" d="M150.642,245.333a1.31,1.31,0,0,0-1.309,1.309V270.2a1.309,1.309,0,1,0,2.618,0V246.642A1.31,1.31,0,0,0,150.642,245.333Z" transform="translate(-149.333 -245.333)"/>
      </g>
    </g>
  </g>
</svg>
