<svg xmlns="http://www.w3.org/2000/svg" width="42.334" height="42.334" viewBox="0 0 42.334 42.334">
  <g id="Group_184" data-name="Group 184" transform="translate(-252 -375.889)">
    <path id="Path_192" data-name="Path 192" d="M273.167,375.889a21.167,21.167,0,1,0,21.167,21.167A21.167,21.167,0,0,0,273.167,375.889Zm-5.6,31.6h-5.057V392.268h5.057Zm-2.53-17.294h-.031a2.891,2.891,0,1,1,.031,0Zm20.771,17.294h-5.059v-8.141c0-2.045-.73-3.442-2.563-3.442a2.769,2.769,0,0,0-2.594,1.852,3.425,3.425,0,0,0-.167,1.232v8.5h-5.061s.068-13.79,0-15.218h5.061v2.157a5.024,5.024,0,0,1,4.56-2.515c3.329,0,5.823,2.176,5.823,6.848Z" transform="translate(0 0)" fill="#006400"/>
    <path id="Path_193" data-name="Path 193" d="M301.638,415.24v-.05c-.009.017-.024.033-.033.05Z" transform="translate(-26.209 -20.765)" fill="#006400"/>
  </g>
</svg>
