<svg xmlns="http://www.w3.org/2000/svg" width="10" height="14.222" viewBox="0 0 10 14.222"><defs><style>.a{fill:#212121;}</style></defs><g transform="translate(-76)"><path class="a" d="M81,0a5,5,0,0,0-4.254,7.629l3.969,6.4a.417.417,0,0,0,.354.2h0a.417.417,0,0,0,.354-.2l3.868-6.458A5,5,0,0,0,81,0Zm3.58,7.134-3.517,5.871L77.455,7.19a4.17,4.17,0,1,1,7.125-.056Z" transform="translate(0 0)"/><path class="a" d="M168.5,90a2.5,2.5,0,1,0,2.5,2.5A2.5,2.5,0,0,0,168.5,90Zm0,4.172A1.672,1.672,0,1,1,170.17,92.5,1.674,1.674,0,0,1,168.5,94.172Z" transform="translate(-87.5 -87.5)"/></g></svg>