<svg xmlns="http://www.w3.org/2000/svg" width="17" height="16.944" viewBox="0 0 17 16.944">
  <g id="Group_166" data-name="Group 166" transform="translate(0 -0.851)">
    <path id="Path_173" data-name="Path 173" d="M8.472,16.383H2.118a.706.706,0,0,1-.706-.706V2.969a.706.706,0,0,1,.706-.706H8.472a.706.706,0,1,0,0-1.412H2.118A2.121,2.121,0,0,0,0,2.969V15.677a2.121,2.121,0,0,0,2.118,2.118H8.472a.706.706,0,0,0,0-1.412Z" fill="#fff"/>
    <path id="Path_174" data-name="Path 174" d="M181.242,111.6l-4.292-4.236a.706.706,0,0,0-.991,1.005l3.067,3.027h-8.22a.706.706,0,1,0,0,1.412h8.22l-3.067,3.027a.706.706,0,1,0,.991,1.005l4.292-4.236a.706.706,0,0,0,0-1.005Z" transform="translate(-164.452 -102.784)" fill="#fff"/>
  </g>
</svg>
