<svg xmlns="http://www.w3.org/2000/svg" viewBox="0 0 216 207"><defs><style>.cls-1{fill:#3c3c3c;}</style></defs><title>5378662 [Recovered]</title><g id="OBJECTS"><path class="cls-1" d="M23.5,55.33c.09-2.5.25-5,.24-7.5a17.29,17.29,0,0,1,3.72-11.19A16.3,16.3,0,0,1,40,30.17c.58,0,1.15,0,1.72,0q59.08,0,118.16,0c7.67,0,13.26,3.3,16.39,10.27a18.49,18.49,0,0,1,1.52,7.15c.15,12.33.09,24.66.07,37,0,2.66-1.45,4.25-3.69,4.25s-3.68-1.6-3.69-4.25c0-7.62,0-15.25,0-22.88V59.55H31.07v55.06c0,6.94,4,10.92,10.83,10.92H92.3a8.18,8.18,0,0,1,2.37.26,3.55,3.55,0,0,1,2.43,3.73,3.61,3.61,0,0,1-3.24,3.26,13.21,13.21,0,0,1-1.54.05q-25.45,0-50.91,0c-9,0-15.81-5.61-17.39-14.26a24.43,24.43,0,0,1-.25-4.28q0-28,0-55.91A21,21,0,0,0,23.5,56Zm7.62-3.39H170.49V48.3c0-7-3.92-10.86-10.88-10.86H67.42c-8.83,0-17.66,0-26.49,0a9.69,9.69,0,0,0-9.78,8.79A56.94,56.94,0,0,0,31.12,51.94Z"/><path class="cls-1" d="M192.5,136.61A40.33,40.33,0,1,1,152.24,96.2,40.26,40.26,0,0,1,192.5,136.61Zm-40.24-33.1a33,33,0,1,0,32.94,33.12A33.05,33.05,0,0,0,152.26,103.51Z"/><path class="cls-1" d="M56.55,114.52H42.29a3.56,3.56,0,0,1-3.62-2.39,3.27,3.27,0,0,1,1.08-4,4.52,4.52,0,0,1,2.51-.86c9.68-.06,19.37,0,29.05,0a3.58,3.58,0,0,1,3.78,3.61,3.69,3.69,0,0,1-3.92,3.67C66.3,114.54,61.43,114.52,56.55,114.52Z"/><path class="cls-1" d="M49.33,96.2c-2.24,0-4.48,0-6.71,0-2.57,0-4.27-1.61-4.21-3.78s1.7-3.58,4.21-3.6q6.8-.06,13.59,0c2.56,0,4.12,1.43,4.16,3.6s-1.54,3.73-4.16,3.78C53.91,96.23,51.62,96.2,49.33,96.2Z"/><path class="cls-1" d="M152.13,142.42c4-4,7.72-7.78,11.52-11.51a5.89,5.89,0,0,1,2.4-1.54,3.26,3.26,0,0,1,3.86,1.54,3.5,3.5,0,0,1-.19,4.18,9.39,9.39,0,0,1-1,1.15q-6.56,6.57-13.13,13.13c-2.47,2.47-4.27,2.47-6.73,0-3.37-3.36-6.76-6.7-10.08-10.11a3.6,3.6,0,0,1-.12-5.36,3.66,3.66,0,0,1,5.25.15c.47.42.9.88,1.34,1.33Z"/></g></svg>