<svg xmlns="http://www.w3.org/2000/svg" viewBox="0 0 216 207"><defs><style>.cls-1{fill:#3c3c3c;}</style></defs><title>5378662 [Recovered]</title><g id="OBJECTS"><path class="cls-1" d="M9.73,152.25c.23-.44.47-.87.69-1.31a7.89,7.89,0,0,1,7.21-4.86,5,5,0,0,1,.77,0c8.51,1,16.39-1,24-4.82a138.66,138.66,0,0,1,13.44-5.57,4.12,4.12,0,0,1,3.31.41,3.16,3.16,0,0,1,.73,2.85A4.25,4.25,0,0,1,57.6,141c-4.68,2-9.42,3.94-14.14,5.89-2.6,1.08-5.17,2.21-7.79,3.22a2,2,0,0,0-1.54,2.24c.09,2.86,0,5.73,0,8.94L75.22,145c-1.35-1.4-2.52-2.62-3.71-3.82-2.38-2.41-4.74-4.84-7.16-7.21-2.85-2.79-3.37-5.9-1.88-9.61q10.09-25,20-50.16c.26-.64.47-1.3.77-2.14-3.3-.09-6.2-.5-8.77,2.42C70.58,78.94,66.17,83,61.87,87.09a10.06,10.06,0,0,1-10.65,2.43,10.12,10.12,0,0,1-7.12-8.07,9.81,9.81,0,0,1,2.8-9.34C52.6,66.51,58.39,61,64.21,55.52A12.84,12.84,0,0,1,72.32,52c6-.38,12-.66,18-1.09a3,3,0,0,0,2.05-1.19c2.83-4.52,6.33-8.18,11.8-9.66-2.55-7.95.58-15.23,2.88-22.42,2.11-6.59,7.4-10.18,14.27-11.29A11.94,11.94,0,0,0,122.59,6h2.3a48.88,48.88,0,0,1,5,1.27,18,18,0,0,1,11.36,21.14c-.7,3.11-1.54,6.2-2.28,9.3a18.58,18.58,0,0,1-8.87,12.11,12.69,12.69,0,0,1,1.76,9.06c-.07.38.39,1,.78,1.31,1.76,1.27,3.55,2.52,5.41,3.64a4.8,4.8,0,0,0,2.34.54c7.68,0,15.36,0,23,0a9.9,9.9,0,0,1,7.87,16.1,9.73,9.73,0,0,1-7.69,3.72c-8.56.32-17.13.58-25.69.9a11.54,11.54,0,0,1-7-2c-2.28-1.54-4.57-3-7-4.66-.4.9-.78,1.69-1.12,2.5q-3.76,8.91-7.51,17.83c-1.09,2.59-2.43,3.46-4.23,2.77s-2.13-2.37-1.06-4.89c5.18-12.3,10.4-24.58,15.5-36.92A9.56,9.56,0,0,0,126,55c-.34-2.42-1.35-3-3.82-2.88a18.31,18.31,0,0,1-14.15-5.68,2.75,2.75,0,0,0-1.73-.84c-2.59.06-5.79,2.29-7.24,5,1.11-.07,2.1-.15,3.1-.17,1.9,0,3.08.92,3.22,2.55s-.9,2.94-2.89,3.07c-4.91.32-9.83.54-14.75.82a15.37,15.37,0,0,0-1.61.22v8.67H96.5c.89,0,1.79-.13,2.68-.11,1.94,0,3.14,1.16,3.13,2.87s-1.11,2.72-3,2.82c-2.81.15-5.63.19-8.43.41a2.27,2.27,0,0,0-1.66,1.06c-2.73,6.89-5.37,13.81-8,20.72a3,3,0,0,0-.07.71q8.79,3.69,17.61,7.41,14.9,6.33,29.78,12.71c4.72,2,6,4.38,5.44,9.46a1.56,1.56,0,0,0,.27,1.17c4.09,3.9,4.6,9.07,5.25,14.24q2.31,18.47,4.8,36.89a6.32,6.32,0,0,0,1.74,3.17c1.71,1.8,3.62,3.43,5.49,5.08,3,2.63,4.41,5.8,3.32,9.75a8.83,8.83,0,0,1-7.56,6.71,1.86,1.86,0,0,0-.51.25h-15l-2-.56c-4.57-1.34-7.38-5.27-7.5-10.41-.09-4.15.17-8.35-.46-12.42-1.14-7.51-2.81-14.93-4.28-22.39-.72-3.67-1.47-7.34-2.24-11.19-3.82,1.89-7,.89-9.95-1.46-1.75-1.38-3.65-2.58-5.48-3.86l-4.11-2.87a2.42,2.42,0,0,0-.36.3c-1.85,3.2-3.67,6.43-5.56,9.62a7.59,7.59,0,0,1-8.63,3.81,4.46,4.46,0,0,0-2.35.15q-22.35,8.82-44.66,17.74a6.31,6.31,0,0,0-2.16,1.48c-2.21,2.32-4.27,4.77-6.5,7.06a9.11,9.11,0,0,1-15.17-2.86c-.19-.45-.44-.88-.66-1.31ZM79,99.46c-.23.41-.42.66-.54.94-3.6,8.81-7.17,17.63-10.81,26.42a2.63,2.63,0,0,0,.82,3.22c4.21,4.21,8.39,8.45,12.58,12.67,2,2,2.88,1.92,4.34-.61l17.76-30.92c.21-.37.41-.76.7-1.3Zm48.55,76.89h10.87c0-.7,0-1.32-.12-1.94q-1.42-11-2.87-22c-.79-6-1.56-12.05-2.4-18.06a8.37,8.37,0,0,0-2.33-4.81c-3.37,3.1-6.6,6-9.73,9a2.57,2.57,0,0,0-.44,2c1.18,6.35,2.43,12.68,3.68,19C125.29,165.13,126.41,170.7,127.54,176.35ZM98.49,130.76c3.77,2.64,7.45,5.16,11.07,7.77,1.48,1.08,2.59.91,3.82-.4,2.88-3.08,5.85-6.08,8.79-9.11,1.86-1.93,3.76-3.84,5.58-5.81,1.15-1.25,1.05-2.53-.35-3.16-6-2.67-12-5.23-18.22-7.91ZM80.26,57.56c-2.44,0-4.68-.08-6.91,0a8.86,8.86,0,0,0-5.83,2.6c-5.35,5.13-10.75,10.22-16,15.43a6.78,6.78,0,0,0-1.77,3.26,4.57,4.57,0,0,0,2.54,4.93,4.81,4.81,0,0,0,5.82-1c4.23-4.09,8.52-8.13,12.52-12.43,2.55-2.73,5.22-4.63,9.11-4.12.16,0,.34-.13.55-.22Zm29.43-27.27c-2.6,6,1.45,13.69,8.12,15.6a12.63,12.63,0,0,0,15.85-10.83,2.08,2.08,0,0,0-.91-1.58c-2.57-1.65-5.29-3.1-7.82-4.81-1.66-1.12-2.67-1-4,.58-3.28,3.82-6.18,4.14-10.41,1.49C110.26,30.57,110,30.44,109.69,30.29Zm25.57-2a5.84,5.84,0,0,0,.35-.73,12.49,12.49,0,0,0-9.54-15.42,12.67,12.67,0,0,0-14.92,11.36c0,.3,0,.76.17.88a14.06,14.06,0,0,0,3.74,2.21c.55.15,1.58-1.05,2.25-1.77,3-3.2,6-3.67,9.76-1.43C129.77,25,132.44,26.58,135.26,28.27Zm5.05,41.86-1.79,9.31c8.74-.33,17.16-.59,25.57-1a4.05,4.05,0,0,0,3.69-4.2,4.1,4.1,0,0,0-4-4.07C156,70.09,148.29,70.13,140.31,70.13ZM28.46,151.8c-3.5,0-6.8,0-10.1,0-2.12,0-2.88.77-2.89,2.88,0,4.85,0,9.7,0,14.55,0,1.69.51,3,2.14,3.7s3.08,0,4.25-1.27c1.92-2.14,3.88-4.24,5.79-6.38a2.66,2.66,0,0,0,.79-1.44C28.48,159.9,28.46,156,28.46,151.8ZM128,182.16c0,2.84,0,5.44,0,8,.07,3.05,1.88,4.9,4.93,5,4.21.07,8.42,0,12.64,0a3.53,3.53,0,0,0,2.4-6.37c-2.18-2-4.33-4-6.53-5.92a2.53,2.53,0,0,0-1.47-.68C136.11,182.14,132.21,182.16,128,182.16Zm-2-109.1,7,4.6c.6-3,1.17-5.82,1.67-8.62,0-.26-.28-.7-.55-.89-1.5-1.05-3-2-4.69-3.14C128.25,67.78,127.17,70.35,126,73.06Z"/><path class="cls-1" d="M179.78,201c-1.56-.3-3.13-.52-4.67-.91a25.05,25.05,0,1,1,30.77-28.73,9.23,9.23,0,0,0,.39,1.23v6.15c-.13.42-.28.84-.37,1.27-2.16,10.42-8.38,17.09-18.56,20.06-1.58.46-3.25.63-4.87.93Zm20.75-25.26a19.33,19.33,0,1,0-19.35,19.42A19.32,19.32,0,0,0,200.53,175.74Z"/></g></svg>