<svg xmlns="http://www.w3.org/2000/svg" width="22.067" height="23.517" viewBox="0 0 22.067 23.517">
  <path id="Path_249" data-name="Path 249" d="M33.928,15.262A4.134,4.134,0,0,0,30.6,16.943l-6.494-3.319a4.137,4.137,0,0,0-.135-2.718l6.806-4.089a4.12,4.12,0,1,0-.708-1.184l-6.823,4.1a4.137,4.137,0,1,0,.254,5.131l6.475,3.309a4.137,4.137,0,1,0,3.952-2.911Zm0-13.883A2.758,2.758,0,1,1,31.17,4.137a2.758,2.758,0,0,1,2.758-2.758ZM20.137,15.216A2.758,2.758,0,1,1,22.9,12.458a2.758,2.758,0,0,1-2.763,2.758Zm13.79,6.941A2.758,2.758,0,1,1,36.686,19.4a2.758,2.758,0,0,1-2.759,2.757Z" transform="translate(-15.997 -0.02)" fill="#0c0b0b"/>
</svg>
