<svg xmlns="http://www.w3.org/2000/svg" width="12.131" height="12.939" viewBox="0 0 12.131 12.939">
  <path id="Path_249" data-name="Path 249" d="M25.856,8.39a2.273,2.273,0,0,0-1.829.924L20.457,7.49A2.275,2.275,0,0,0,20.383,6l3.742-2.248a2.265,2.265,0,1,0-.389-.651L19.984,5.351a2.274,2.274,0,1,0,.139,2.821l3.56,1.819a2.275,2.275,0,1,0,2.172-1.6Zm0-7.632A1.516,1.516,0,1,1,24.34,2.275,1.518,1.518,0,0,1,25.856.758ZM18.275,8.365a1.516,1.516,0,1,1,1.516-1.516A1.518,1.518,0,0,1,18.275,8.365Zm7.582,3.816a1.516,1.516,0,1,1,1.516-1.516A1.518,1.518,0,0,1,25.856,12.181Z" transform="translate(-16)" fill="#fff"/>
</svg>
