<svg xmlns="http://www.w3.org/2000/svg" viewBox="0 0 216 207"><defs><style>.cls-1{fill:#3c3c3c;}</style></defs><title>5378662 [Recovered]</title><g id="OBJECTS"><path class="cls-1" d="M17.55,149.14V84.29a16.74,16.74,0,0,1,9-10C31.51,71.89,36.69,70,41.8,67.94c1.62-.65,4-.56,4.83-1.69S47,62.77,47,61c0-2.28,0-4.56,0-6.91h-2.3c-5,0-10,0-14.94-.05-1.35,0-2.68-.26-3.16-1.9A3,3,0,0,1,28,48.51c6.06-4.36,12.08-8.77,18.19-13.07,1.36-.95,2.71-2.5,4.73-1.46s1.58,3,1.59,4.69c.06,8.14,0,16.27,0,24.41v1.58L90.32,59.9V57H87.64c-.85,0-1.7,0-2.55,0-2.27-.05-3.36-1.09-3.37-3.36q0-8.28,0-16.58c0-2.27,1.09-3.36,3.36-3.36q22.88,0,45.75,0c2.27,0,3.36,1.09,3.37,3.36q0,8.28,0,16.57c0,2.27-1.1,3.33-3.37,3.37-1.74,0-3.49,0-5.3,0V59.9l37.84,4.74V62.72c0-8.08,0-16.16.08-24.23,0-1.58-.39-3.53,1.56-4.52s3.27.47,4.58,1.39c6.12,4.28,12.16,8.67,18.24,13,1.29.92,2.16,2,1.58,3.68s-1.88,2-3.48,2c-4.92,0-9.84,0-14.77,0h-1.9v12.4c2.05.6,4.09,1.16,6.1,1.8,6.21,2,12.27,4.28,17.47,8.35A13.47,13.47,0,0,1,198.43,88c-.16,19-.19,38,0,57,.06,5.59-2.18,9.52-6.48,12.65-4.93,3.58-10.52,5.75-16.28,7.5-15.61,4.77-31.7,6.66-47.91,7.56-24,1.33-47.85.7-71.53-3.57-9.15-1.65-18.18-3.82-26.58-8C24.3,158.55,19.44,155.32,17.55,149.14Zm175-52.5c-4.58,2.1-9,4.53-13.69,6.19-15.93,5.64-32.57,7.6-49.31,8.77a316.88,316.88,0,0,1-44.44,0c-14.25-1-28.38-2.78-42.17-6.72-6.83-2-13.43-4.49-19.53-8.87v2.06c0,6.25.08,12.51,0,18.76a6.75,6.75,0,0,0,2.72,5.84,23.19,23.19,0,0,0,4.86,3.17,125.65,125.65,0,0,0,13,5c18.23,5.49,37,7.22,55.94,7.66A301.44,301.44,0,0,0,146.62,136a162.23,162.23,0,0,0,30.21-6.46c4.56-1.52,9-3.21,12.82-6.33a7.57,7.57,0,0,0,2.92-6.34c-.12-6.25,0-12.5,0-18.76ZM65.65,94.74c-.52-.56-1-1-1.41-1.5-3.55-3.58-7.13-7.13-10.65-10.74a2.89,2.89,0,0,1-.12-4.35c1.19-1.13,2.84-1.05,4.24.21.31.29.6.6.9.9,4.51,4.51,9,9,13.56,13.49a3.69,3.69,0,0,0,2.51.9c6.78-.4,13.56-1,20.34-1.39,3.3-.19,6.62,0,10,0V75.5c0-2.6,1-4,3-4s2.86,1.38,2.86,3.87q0,7.27,0,14.57v1.57c10.42.75,20.53,1.5,30.64,2.16a3.45,3.45,0,0,0,2.32-1c4.69-4.58,9.3-9.25,13.94-13.88,1.76-1.75,3.42-1.93,4.75-.56s1.08,3-.66,4.75l-4.38,4.38-7.31,7.29c.55.14.84.22,1.13.28,6.42,1.29,12.84,2.59,19.26,3.86a3.1,3.1,0,0,0,1.42,0c5.59-1.64,11.17-3.37,16.06-6.66,5.86-3.94,6-8.29,0-12a54,54,0,0,0-11.68-5.37c-17.5-5.73-35.64-8-53.92-8.69-11.33-.44-22.71-.2-34,.3a203.83,203.83,0,0,0-41.88,6.25C40.07,74.4,33.65,76.32,28,80c-6.1,4-6.14,8.53.11,12.33,3.39,2,7.21,3.4,10.84,5,3.43,1.56,6.91,2,10.51.53a11.74,11.74,0,0,1,2.31-.52ZM23.39,128.27c0,5.59.24,10.94-.08,16.26-.26,4.23,1.44,7.15,4.94,8.93a98.37,98.37,0,0,0,13.27,5.83c12.8,4.25,26.11,6,39.48,7.28,2.14.2,4.29.29,6.55.44,0-4.56,0-8.87,0-13.17,0-2.53,1-3.59,3.5-3.6q17,0,33.9,0c2.36,0,3.4,1.09,3.42,3.5,0,3.82,0,7.65,0,11.47v2.12c8.15-1,16-1.78,23.8-2.93,10-1.47,19.83-3.59,29.14-7.62a41.93,41.93,0,0,0,8.43-4.94,6.92,6.92,0,0,0,2.66-4.48c.29-6.24.1-12.5.08-18.75,0-.07-.16-.14-.29-.26a55.4,55.4,0,0,1-15.33,7.34c-15.08,4.85-30.66,6.83-46.37,7.91a304.9,304.9,0,0,1-62.91-1.81C52.24,139.67,37,137,23.39,128.27Zm35.37-26.13a283.34,283.34,0,0,0,98.45,0A283.34,283.34,0,0,0,58.76,102.14Zm69.48-51.08V39.63H87.65V51.06ZM93.47,167.45h29V156.2H93.47ZM96.39,60h23.14V57.06H96.39Zm81.12-11.84-8.2-5.86v5.86Zm-139,0h8.05V42.34Z"/><path class="cls-1" d="M35.05,113.92c0,1.39,0,2.79,0,4.18a2.9,2.9,0,1,1-5.79,0q-.09-4.29,0-8.56a2.9,2.9,0,1,1,5.79,0C35.09,111,35.05,112.46,35.05,113.92Z"/><path class="cls-1" d="M180.88,113.63c0-1.4-.06-2.8,0-4.19a2.89,2.89,0,1,1,5.78,0q.11,4.36,0,8.74a2.89,2.89,0,1,1-5.78,0C180.82,116.66,180.88,115.14,180.88,113.63Z"/><path class="cls-1" d="M55.46,119.8c0,1.39,0,2.79,0,4.18a2.88,2.88,0,0,1-2.88,2.92,2.84,2.84,0,0,1-2.9-2.88q-.1-4.38,0-8.74a2.89,2.89,0,1,1,5.78,0C55.52,116.76,55.46,118.28,55.46,119.8Z"/><path class="cls-1" d="M166.28,119.65c0,1.39,0,2.79,0,4.19a2.91,2.91,0,1,1-5.8,0q-.08-4.18,0-8.37a2.91,2.91,0,1,1,5.8,0C166.32,116.85,166.28,118.25,166.28,119.65Z"/><path class="cls-1" d="M81.71,125.31c0,1.45,0,2.91,0,4.37a2.91,2.91,0,1,1-5.8-.06c-.05-2.79-.06-5.59,0-8.38a2.87,2.87,0,0,1,2.92-3,2.92,2.92,0,0,1,2.88,3.11C81.75,122.64,81.71,124,81.71,125.31Z"/><path class="cls-1" d="M134.21,125.29c0-1.4-.05-2.8,0-4.19a2.87,2.87,0,0,1,2.88-2.91,2.84,2.84,0,0,1,2.9,2.89c.07,2.91.07,5.83,0,8.74a2.84,2.84,0,0,1-2.88,2.91,2.91,2.91,0,0,1-2.91-2.89c0-.12,0-.24,0-.36v-4.19Z"/><path class="cls-1" d="M105.05,126.94c0-1.45,0-2.91,0-4.37a2.87,2.87,0,0,1,2.87-2.92,2.84,2.84,0,0,1,2.92,2.87c.07,2.91.07,5.83,0,8.74a2.85,2.85,0,0,1-2.87,2.93,2.93,2.93,0,0,1-2.93-3.06c0-.12,0-.24,0-.36v-3.83Z"/></g></svg>