<svg xmlns="http://www.w3.org/2000/svg" width="160" height="160" viewBox="0 0 160 160">
  <g id="Group_194" data-name="Group 194" transform="translate(-103.833 -228.973)">
    <g id="Group_193" data-name="Group 193" transform="translate(103.833 228.973)">
      <path id="Path_226" data-name="Path 226" d="M263.833,308.973a80,80,0,1,1-80-80,80,80,0,0,1,80,80Zm0,0" transform="translate(-103.833 -228.973)" fill="#e5eee7"/>
    </g>
    <path id="Path_227" data-name="Path 227" d="M274.584,343.448a33.809,33.809,0,0,0-6.331-4.548,33.831,33.831,0,0,0-1.78-7.592,2.525,2.525,0,0,0-1.467-1.467,33.86,33.86,0,0,0-7.591-1.78,33.963,33.963,0,0,0-4.548-6.333,2.252,2.252,0,0,0-1.921-.793,33.849,33.849,0,0,0-7.695,1.261,39.909,39.909,0,0,0-6.623-4.278,2.51,2.51,0,0,0-2.079,0,39.946,39.946,0,0,0-6.623,4.278,33.852,33.852,0,0,0-7.7-1.261,2.225,2.225,0,0,0-1.921.793,33.94,33.94,0,0,0-4.548,6.333,33.846,33.846,0,0,0-7.591,1.78,2.522,2.522,0,0,0-1.468,1.467,33.856,33.856,0,0,0-1.78,7.592,33.982,33.982,0,0,0-6.334,4.548,2.522,2.522,0,0,0-.792,1.92,33.705,33.705,0,0,0,1.261,7.7,39.736,39.736,0,0,0-4.278,6.625,2.52,2.52,0,0,0,0,2.078,39.719,39.719,0,0,0,4.278,6.624,33.708,33.708,0,0,0-1.261,7.7,2.526,2.526,0,0,0,.792,1.921,33.972,33.972,0,0,0,6.334,4.547,33.871,33.871,0,0,0,1.78,7.592,2.519,2.519,0,0,0,1.47,1.467,33.817,33.817,0,0,0,7.589,1.781,33.845,33.845,0,0,0,4.548,6.33,2.387,2.387,0,0,0,1.921.8,33.808,33.808,0,0,0,7.693-1.26,40.135,40.135,0,0,0,6.626,4.278,2.522,2.522,0,0,0,2.079,0,39.992,39.992,0,0,0,6.624-4.278,33.83,33.83,0,0,0,7.695,1.26,2.363,2.363,0,0,0,1.92-.8,33.846,33.846,0,0,0,4.548-6.33A33.8,33.8,0,0,0,265,391.611a2.519,2.519,0,0,0,1.47-1.467,33.845,33.845,0,0,0,1.78-7.592A33.867,33.867,0,0,0,274.584,378a2.512,2.512,0,0,0,.8-1.921,33.815,33.815,0,0,0-1.261-7.7,39.782,39.782,0,0,0,4.277-6.624,2.523,2.523,0,0,0,0-2.078,39.8,39.8,0,0,0-4.277-6.625,33.812,33.812,0,0,0,1.261-7.7,2.51,2.51,0,0,0-.8-1.92Z" transform="translate(-51.755 -51.752)" fill="#006400" stroke="#000" stroke-miterlimit="10" stroke-width="7"/>
    <path id="Path_228" data-name="Path 228" d="M253.912,395.774a4.684,4.684,0,0,1-6.433,0l-6.989-6.99-6.435,6.433L250.7,411.859l34.841-34.84-6.44-6.435Zm0,0" transform="translate(-75.962 -82.606)" fill="#fff"/>
    <path id="Path_229" data-name="Path 229" d="M350.9,403.019" transform="translate(-144.125 -101.527)" fill="#006400"/>
  </g>
</svg>
