<svg xmlns="http://www.w3.org/2000/svg" width="13.333" height="13.333" viewBox="0 0 13.333 13.333">
  <path id="Path_292" data-name="Path 292" d="M-111.333-104.667a6.667,6.667,0,0,0,6.667-6.667A6.667,6.667,0,0,0-111.333-118,6.667,6.667,0,0,0-118-111.333,6.667,6.667,0,0,0-111.333-104.667Zm-2.545-5.259,2.654-2.654H-113a.767.767,0,0,1-.767-.767.767.767,0,0,1,.767-.767h4.3a.153.153,0,0,1,.153.153v4.3a.767.767,0,0,1-.767.767.767.767,0,0,1-.767-.767v-1.778l-2.654,2.654h0a.8.8,0,0,1-1.138,0A.8.8,0,0,1-113.878-109.926Z" transform="translate(118 118)" fill="#f44336"/>
</svg>
