<svg xmlns="http://www.w3.org/2000/svg" width="13.333" height="13.333" viewBox="0 0 13.333 13.333">
  <path id="Path_295" data-name="Path 295" d="M-111.333-118A6.667,6.667,0,0,0-118-111.333a6.667,6.667,0,0,0,6.667,6.667,6.667,6.667,0,0,0,6.667-6.667A6.667,6.667,0,0,0-111.333-118Zm2.545,5.259-2.654,2.654h1.778a.767.767,0,0,1,.767.767.767.767,0,0,1-.767.767h-4.3a.153.153,0,0,1-.153-.153V-113a.767.767,0,0,1,.767-.767.767.767,0,0,1,.767.767v1.778l2.654-2.654h0a.8.8,0,0,1,1.138,0A.8.8,0,0,1-108.788-112.741Z" transform="translate(118 118)" fill="#006400"/>
</svg>
