<svg xmlns="http://www.w3.org/2000/svg" width="42.333" height="42.333" viewBox="0 0 42.333 42.333">
  <g id="Group_182" data-name="Group 182" transform="translate(-704 -284)">
    <path id="Path_187" data-name="Path 187" d="M725.167,284a21.167,21.167,0,1,0,21.167,21.167A21.169,21.169,0,0,0,725.167,284Zm9.664,16.5q.014.312.014.628a13.729,13.729,0,0,1-13.823,13.823h0a13.752,13.752,0,0,1-7.447-2.182,9.88,9.88,0,0,0,1.159.067,9.749,9.749,0,0,0,6.034-2.08,4.864,4.864,0,0,1-4.539-3.375,4.84,4.84,0,0,0,2.194-.083,4.86,4.86,0,0,1-3.9-4.762c0-.022,0-.042,0-.062a4.825,4.825,0,0,0,2.2.607,4.862,4.862,0,0,1-1.5-6.486,13.793,13.793,0,0,0,10.014,5.076,4.861,4.861,0,0,1,8.279-4.431,9.746,9.746,0,0,0,3.085-1.179,4.878,4.878,0,0,1-2.136,2.687,9.688,9.688,0,0,0,2.79-.765,9.874,9.874,0,0,1-2.423,2.516Zm0,0" fill="#006400"/>
  </g>
</svg>
