<svg xmlns="http://www.w3.org/2000/svg" width="160" height="160" viewBox="0 0 160 160">
  <g id="Group_181" data-name="Group 181" transform="translate(90.704 -44.667)">
    <path id="Path_272" data-name="Path 272" d="M80,0A80,80,0,1,1,0,80,80,80,0,0,1,80,0Z" transform="translate(-90.704 44.667)" fill="#006400" opacity="0.1"/>
    <g id="Group_180" data-name="Group 180" transform="translate(-40.959 88.828)">
      <path id="Path_176" data-name="Path 176" d="M355.839,513.145a.516.516,0,1,0-.367-.151.517.517,0,0,0,.367.151Zm0-17.362a10.868,10.868,0,1,1-10.86,10.86,10.868,10.868,0,0,1,10.86-10.86Zm0,0" transform="translate(-304.725 -446.758)" fill="#fff"/>
      <path id="Path_177" data-name="Path 177" d="M175.249,397.406a.881.881,0,1,0-.88-.881.881.881,0,0,0,.88.881Zm-8.919,0a.881.881,0,1,0-.881-.881.881.881,0,0,0,.881.881Zm17.84,0a.881.881,0,1,0-.881-.881.88.88,0,0,0,.881.881Zm8.919,0a.881.881,0,1,0-.879-.881.88.88,0,0,0,.879.881Zm8.609-20.273a3.1,3.1,0,0,1,3.1,3.1v21.407a10.869,10.869,0,0,0-10.411,13.963H157.721a3.1,3.1,0,0,1-3.1-3.1V380.236a3.1,3.1,0,0,1,3.1-3.1Zm0,0" transform="translate(-153.687 -352.617)" fill="#006400"/>
      <path id="Path_178" data-name="Path 178" d="M302.447,286.377v.167H299.1V273a6.7,6.7,0,0,0-6.69-6.692h-4.183v-3.345h4.183A10.037,10.037,0,0,1,302.447,273Zm0,0" transform="translate(-259.697 -262.028)" fill="#006400"/>
      <rect id="Rectangle_669" data-name="Rectangle 669" width="5.017" height="3.345" transform="translate(23.513 0.931)" fill="#006400"/>
      <path id="Path_179" data-name="Path 179" d="M198.453,286.377v.167h-3.346V273a10.037,10.037,0,0,1,10.037-10.036h4.182V266.3h-4.182a6.7,6.7,0,0,0-6.69,6.692Zm0,0" transform="translate(-185.812 -262.028)" fill="#006400"/>
      <path id="Path_180" data-name="Path 180" d="M182.825,258.453H169.443a10.979,10.979,0,0,0-10.967,10.967v12.618h-4.33a4.038,4.038,0,0,0-4.034,4.034v32.267a4.038,4.038,0,0,0,4.034,4.034h36a11.9,11.9,0,0,0,3.968,5.372,11.79,11.79,0,1,0,8.042-21.157V286.072a4.038,4.038,0,0,0-4.034-4.034h-4.33V269.42a10.979,10.979,0,0,0-10.967-10.967Zm9.106,10.967v12.618h-1.485V269.42a7.63,7.63,0,0,0-7.621-7.622h-3.252v-1.483h3.252a9.116,9.116,0,0,1,9.106,9.106ZM174.556,261.8v-1.483h3.155V261.8Zm8.269,1.862a5.766,5.766,0,0,1,5.759,5.761v12.618h-24.9V269.42a5.766,5.766,0,0,1,5.759-5.761Zm-22.488,5.761a9.116,9.116,0,0,1,9.106-9.106h3.251V261.8h-3.251a7.63,7.63,0,0,0-7.621,7.622v12.618h-1.485Zm50.817,48.918a9.929,9.929,0,1,1-9.929-9.929,9.929,9.929,0,0,1,9.929,9.929Zm-10.86-32.267v20.516a11.794,11.794,0,0,0-10.659,13.923h-35.49a2.174,2.174,0,0,1-2.172-2.172V286.072a2.175,2.175,0,0,1,2.172-2.172h43.977a2.175,2.175,0,0,1,2.172,2.172Zm0,0" transform="translate(-150.112 -258.453)"/>
      <rect id="Rectangle_670" data-name="Rectangle 670" width="62.988" height="71.676" fill="none"/>
      <path id="Path_181" data-name="Path 181" d="M247.538,465.865a1.811,1.811,0,1,0-1.811-1.812,1.812,1.812,0,0,0,1.811,1.812Zm0-1.862a.048.048,0,0,1,.036.014.05.05,0,0,1,.015.036.05.05,0,1,1-.086-.036.048.048,0,0,1,.035-.014Zm0,0" transform="translate(-225.976 -420.145)" fill="#fff"/>
      <path id="Path_182" data-name="Path 182" d="M290.718,465.865a1.811,1.811,0,1,0-1.812-1.812,1.811,1.811,0,0,0,1.812,1.812Zm0-1.862a.048.048,0,0,1,.035.014.053.053,0,0,1,.014.036.05.05,0,0,1-.05.05.051.051,0,0,1-.051-.05.055.055,0,0,1,.015-.036.049.049,0,0,1,.036-.014Zm0,0" transform="translate(-260.235 -420.145)" fill="#fff"/>
      <path id="Path_183" data-name="Path 183" d="M333.9,465.865a1.811,1.811,0,1,0-1.81-1.812,1.811,1.811,0,0,0,1.81,1.812Zm0-1.862a.049.049,0,0,1,.051.05.052.052,0,0,1-.015.036.053.053,0,0,1-.036.014.048.048,0,0,1-.035-.015.051.051,0,0,1,0-.072A.048.048,0,0,1,333.9,464Zm0,0" transform="translate(-294.5 -420.145)" fill="#fff"/>
      <path id="Path_184" data-name="Path 184" d="M204.353,465.865a1.811,1.811,0,1,0-1.812-1.812,1.811,1.811,0,0,0,1.812,1.812Zm0-1.862a.05.05,0,0,1,.036.014.051.051,0,0,1,.014.036.05.05,0,0,1-.05.051.051.051,0,0,1-.036-.014.052.052,0,0,1-.015-.036.049.049,0,0,1,.015-.036.047.047,0,0,1,.036-.014Zm0,0" transform="translate(-191.711 -420.145)" fill="#fff"/>
      <path id="Path_185" data-name="Path 185" d="M378.025,516.407a.931.931,0,1,0,1.862,0,2.172,2.172,0,1,1,3.26,1.88,4.117,4.117,0,0,0-2.019,3.567V523.2a.931.931,0,0,0,1.862,0v-1.347a2.251,2.251,0,0,1,1.091-1.956,4.034,4.034,0,1,0-6.055-3.491Zm0,0" transform="translate(-330.945 -459.921)" fill="#006400"/>
      <path id="Path_186" data-name="Path 186" d="M391.991,570.325a1.447,1.447,0,1,0,1.447,1.447,1.448,1.448,0,0,0-1.447-1.447Zm0,1.862a.414.414,0,1,1,.413-.415.415.415,0,0,1-.413.415Zm0,0" transform="translate(-340.877 -505.902)" fill="#006400"/>
    </g>
  </g>
</svg>
