<svg width="200" height="128" viewBox="0 0 200 128" fill="none" xmlns="http://www.w3.org/2000/svg">
<path d="M198.729 59.8463C196.942 57.4021 154.371 0 99.9991 0C45.6275 0 3.05392 57.4021 1.26914 59.8439C-0.423048 62.1627 -0.423048 65.3076 1.26914 67.6264C3.05392 70.0705 45.6275 127.473 99.9991 127.473C154.371 127.473 196.942 70.0701 198.729 67.6283C200.424 65.31 200.424 62.1627 198.729 59.8463ZM99.9991 114.286C59.9486 114.286 25.2606 76.1869 14.9922 63.7318C25.2473 51.2658 59.8627 13.1868 99.9991 13.1868C140.048 13.1868 174.733 51.2791 185.006 63.7408C174.751 76.2065 140.136 114.286 99.9991 114.286Z" fill="white"/>
<path d="M99.9991 24.1758C78.1858 24.1758 60.4385 41.9231 60.4385 63.7365C60.4385 85.5498 78.1858 103.297 99.9991 103.297C121.812 103.297 139.56 85.5498 139.56 63.7365C139.56 41.9231 121.812 24.1758 99.9991 24.1758ZM99.9991 90.11C85.4561 90.11 73.6256 78.2791 73.6256 63.7365C73.6256 49.1939 85.4565 37.363 99.9991 37.363C114.542 37.363 126.373 49.1939 126.373 63.7365C126.373 78.2791 114.542 90.11 99.9991 90.11Z" fill="white"/>
</svg>
