<svg xmlns="http://www.w3.org/2000/svg" width="21.09" height="20.115" viewBox="0 0 21.09 20.115">
  <g id="Group_7" data-name="Group 7" transform="translate(0 0.001)" opacity="0.4">
    <path id="Path_15" data-name="Path 15" d="M118.16,236.623a5.93,5.93,0,0,0-4.615,2.211A5.927,5.927,0,0,0,103,242.553c0,2.568,1.534,5.542,4.561,8.839a44.008,44.008,0,0,0,5.592,5.051l.392.294.392-.294a44,44,0,0,0,5.592-5.051c3.026-3.3,4.561-6.271,4.561-8.839a5.937,5.937,0,0,0-5.93-5.93Zm.615,14.052a44.31,44.31,0,0,1-5.23,4.78,44.311,44.311,0,0,1-5.229-4.78c-2.873-3.13-4.391-5.994-4.391-8.285a4.814,4.814,0,0,1,9.027-2.33l.594,1.071.594-1.071a4.814,4.814,0,0,1,9.027,2.33c0,2.29-1.52,5.155-4.393,8.285Z" transform="translate(-103 -236.623)" fill="#fff"/>
  </g>
</svg>
