<svg xmlns="http://www.w3.org/2000/svg" width="20.545" height="20.545" viewBox="0 0 20.545 20.545">
  <g id="Group_38" data-name="Group 38" opacity="0.4">
    <path id="Path_16" data-name="Path 16" d="M66.047,181.889a9.047,9.047,0,1,0,9.047,9.047A9.047,9.047,0,0,0,66.047,181.889Zm8.442,8.934L73.01,189.05l.489-2.081A8.389,8.389,0,0,1,74.489,190.823Zm-1.435-4.594-.627,2.665-3.3,1.1-2.775-2.219v-3.27l3.167-1.267A8.5,8.5,0,0,1,73.054,186.229Zm-4.33,4.219-.8,3.2H64.172l-.8-3.2,2.676-2.14Zm-.03-7.529-2.646,1.058-2.66-1.053A8.414,8.414,0,0,1,68.693,182.919Zm-6.128.327,3.181,1.261v3.269L62.971,190l-3.3-1.1-.627-2.665A8.5,8.5,0,0,1,62.565,183.246ZM58.6,186.97l.489,2.081-1.479,1.773A8.39,8.39,0,0,1,58.6,186.97Zm-.953,4.754,1.87-2.246,3.267,1.089.83,3.319-1.614,2.152-3-.474A8.39,8.39,0,0,1,57.642,191.724Zm1.852,4.531,2.452.387,1.483,2.322A8.472,8.472,0,0,1,59.494,196.254Zm4.8,2.943v0l-1.8-2.817,1.594-2.125h3.921l1.616,2.135-1.568,2.748A8.418,8.418,0,0,1,64.293,199.2Zm4.6-.312,1.285-2.249,2.422-.382A8.477,8.477,0,0,1,68.894,198.886Zm4.211-3.322-2.991.472-1.628-2.151.83-3.317,3.267-1.089,1.871,2.246A8.389,8.389,0,0,1,73.1,195.564Z" transform="translate(-55.775 -180.664)" fill="#fff"/>
    <path id="Path_17" data-name="Path 17" d="M372.5,632.76" transform="translate(-359.385 -614.538)" fill="#fff"/>
    <ellipse id="Ellipse_3" data-name="Ellipse 3" cy="0.514" ry="0.514" transform="translate(10.273)" fill="#fff"/>
    <ellipse id="Ellipse_4" data-name="Ellipse 4" cy="0.514" ry="0.514" transform="translate(10.273 19.518)" fill="#fff"/>
    <g id="Group_8" data-name="Group 8" transform="translate(10.273)">
      <ellipse id="Ellipse_5" data-name="Ellipse 5" cy="0.514" ry="0.514" fill="#fff"/>
      <ellipse id="Ellipse_6" data-name="Ellipse 6" cy="0.514" ry="0.514" transform="translate(0 19.518)" fill="#fff"/>
    </g>
    <g id="Group_9" data-name="Group 9" transform="translate(8.878 0.054)">
      <ellipse id="Ellipse_7" data-name="Ellipse 7" cx="0.358" cy="0.358" rx="0.358" ry="0.358" transform="translate(2.073 0)" fill="#fff"/>
      <ellipse id="Ellipse_8" data-name="Ellipse 8" cx="0.358" cy="0.358" rx="0.358" ry="0.358" transform="translate(0 19.72)" fill="#fff"/>
    </g>
    <g id="Group_10" data-name="Group 10" transform="translate(7.853 0.217)">
      <ellipse id="Ellipse_9" data-name="Ellipse 9" cx="0.358" cy="0.358" rx="0.358" ry="0.358" transform="translate(4.123 0)" fill="#fff"/>
      <ellipse id="Ellipse_10" data-name="Ellipse 10" cx="0.358" cy="0.358" rx="0.358" ry="0.358" transform="translate(0 19.396)" fill="#fff"/>
    </g>
    <g id="Group_11" data-name="Group 11" transform="translate(6.851 0.485)">
      <ellipse id="Ellipse_11" data-name="Ellipse 11" cx="0.358" cy="0.358" rx="0.358" ry="0.358" transform="translate(6.127 0)" fill="#fff"/>
      <ellipse id="Ellipse_12" data-name="Ellipse 12" cx="0.358" cy="0.358" rx="0.358" ry="0.358" transform="translate(0 18.858)" fill="#fff"/>
    </g>
    <g id="Group_12" data-name="Group 12" transform="translate(5.882 0.857)">
      <ellipse id="Ellipse_13" data-name="Ellipse 13" cx="0.358" cy="0.358" rx="0.358" ry="0.358" transform="translate(8.065 0)" fill="#fff"/>
      <ellipse id="Ellipse_14" data-name="Ellipse 14" cx="0.358" cy="0.358" rx="0.358" ry="0.358" transform="translate(0 18.115)" fill="#fff"/>
    </g>
    <g id="Group_13" data-name="Group 13" transform="translate(4.957 1.328)">
      <ellipse id="Ellipse_15" data-name="Ellipse 15" cx="0.358" cy="0.358" rx="0.358" ry="0.358" transform="translate(9.914 0)" fill="#fff"/>
      <ellipse id="Ellipse_16" data-name="Ellipse 16" cx="0.358" cy="0.358" rx="0.358" ry="0.358" transform="translate(0 17.172)" fill="#fff"/>
    </g>
    <g id="Group_14" data-name="Group 14" transform="translate(4.087 1.893)">
      <ellipse id="Ellipse_17" data-name="Ellipse 17" cx="0.358" cy="0.358" rx="0.358" ry="0.358" transform="translate(11.655)" fill="#fff"/>
      <ellipse id="Ellipse_18" data-name="Ellipse 18" cx="0.358" cy="0.358" rx="0.358" ry="0.358" transform="translate(0 16.042)" fill="#fff"/>
    </g>
    <g id="Group_15" data-name="Group 15" transform="translate(3.28 2.547)">
      <ellipse id="Ellipse_19" data-name="Ellipse 19" cx="0.358" cy="0.358" rx="0.358" ry="0.358" transform="translate(13.268)" fill="#fff"/>
      <ellipse id="Ellipse_20" data-name="Ellipse 20" cx="0.358" cy="0.358" rx="0.358" ry="0.358" transform="translate(0 14.736)" fill="#fff"/>
    </g>
    <g id="Group_16" data-name="Group 16" transform="translate(2.547 3.28)">
      <ellipse id="Ellipse_21" data-name="Ellipse 21" cx="0.358" cy="0.358" rx="0.358" ry="0.358" transform="translate(14.736)" fill="#fff"/>
      <ellipse id="Ellipse_22" data-name="Ellipse 22" cx="0.358" cy="0.358" rx="0.358" ry="0.358" transform="translate(0 13.268)" fill="#fff"/>
    </g>
    <g id="Group_17" data-name="Group 17" transform="translate(1.894 4.087)">
      <ellipse id="Ellipse_23" data-name="Ellipse 23" cx="0.358" cy="0.358" rx="0.358" ry="0.358" transform="translate(16.042 0)" fill="#fff"/>
      <ellipse id="Ellipse_24" data-name="Ellipse 24" cx="0.358" cy="0.358" rx="0.358" ry="0.358" transform="translate(0 11.655)" fill="#fff"/>
    </g>
    <g id="Group_18" data-name="Group 18" transform="translate(1.328 4.957)">
      <ellipse id="Ellipse_25" data-name="Ellipse 25" cx="0.358" cy="0.358" rx="0.358" ry="0.358" transform="translate(17.172)" fill="#fff"/>
      <ellipse id="Ellipse_26" data-name="Ellipse 26" cx="0.358" cy="0.358" rx="0.358" ry="0.358" transform="translate(0 9.914)" fill="#fff"/>
    </g>
    <g id="Group_19" data-name="Group 19" transform="translate(0.857 5.882)">
      <ellipse id="Ellipse_27" data-name="Ellipse 27" cx="0.358" cy="0.358" rx="0.358" ry="0.358" transform="translate(18.115 0)" fill="#fff"/>
      <ellipse id="Ellipse_28" data-name="Ellipse 28" cx="0.358" cy="0.358" rx="0.358" ry="0.358" transform="translate(0 8.065)" fill="#fff"/>
    </g>
    <g id="Group_20" data-name="Group 20" transform="translate(0.485 6.851)">
      <ellipse id="Ellipse_29" data-name="Ellipse 29" cx="0.358" cy="0.358" rx="0.358" ry="0.358" transform="translate(18.858)" fill="#fff"/>
      <ellipse id="Ellipse_30" data-name="Ellipse 30" cx="0.358" cy="0.358" rx="0.358" ry="0.358" transform="translate(0 6.127)" fill="#fff"/>
    </g>
    <g id="Group_21" data-name="Group 21" transform="translate(0.217 7.853)">
      <ellipse id="Ellipse_31" data-name="Ellipse 31" cx="0.358" cy="0.358" rx="0.358" ry="0.358" transform="translate(19.396 0)" fill="#fff"/>
      <ellipse id="Ellipse_32" data-name="Ellipse 32" cx="0.358" cy="0.358" rx="0.358" ry="0.358" transform="translate(0 4.123)" fill="#fff"/>
    </g>
    <g id="Group_22" data-name="Group 22" transform="translate(0.054 8.878)">
      <ellipse id="Ellipse_33" data-name="Ellipse 33" cx="0.358" cy="0.358" rx="0.358" ry="0.358" transform="translate(19.72)" fill="#fff"/>
      <ellipse id="Ellipse_34" data-name="Ellipse 34" cx="0.358" cy="0.358" rx="0.358" ry="0.358" transform="translate(0 2.073)" fill="#fff"/>
    </g>
    <g id="Group_23" data-name="Group 23" transform="translate(0 10.273)">
      <ellipse id="Ellipse_35" data-name="Ellipse 35" cx="0.514" rx="0.514" transform="translate(19.518)" fill="#fff"/>
      <ellipse id="Ellipse_36" data-name="Ellipse 36" cx="0.514" rx="0.514" fill="#fff"/>
    </g>
    <g id="Group_24" data-name="Group 24" transform="translate(0.054 8.878)">
      <ellipse id="Ellipse_37" data-name="Ellipse 37" cx="0.358" cy="0.358" rx="0.358" ry="0.358" transform="translate(19.72 2.073)" fill="#fff"/>
      <ellipse id="Ellipse_38" data-name="Ellipse 38" cx="0.358" cy="0.358" rx="0.358" ry="0.358" fill="#fff"/>
    </g>
    <g id="Group_25" data-name="Group 25" transform="translate(0.217 7.853)">
      <ellipse id="Ellipse_39" data-name="Ellipse 39" cx="0.358" cy="0.358" rx="0.358" ry="0.358" transform="translate(19.396 4.123)" fill="#fff"/>
      <ellipse id="Ellipse_40" data-name="Ellipse 40" cx="0.358" cy="0.358" rx="0.358" ry="0.358" transform="translate(0 0)" fill="#fff"/>
    </g>
    <g id="Group_26" data-name="Group 26" transform="translate(0.485 6.851)">
      <ellipse id="Ellipse_41" data-name="Ellipse 41" cx="0.358" cy="0.358" rx="0.358" ry="0.358" transform="translate(18.858 6.127)" fill="#fff"/>
      <ellipse id="Ellipse_42" data-name="Ellipse 42" cx="0.358" cy="0.358" rx="0.358" ry="0.358" fill="#fff"/>
    </g>
    <g id="Group_27" data-name="Group 27" transform="translate(0.857 5.882)">
      <ellipse id="Ellipse_43" data-name="Ellipse 43" cx="0.358" cy="0.358" rx="0.358" ry="0.358" transform="translate(18.115 8.065)" fill="#fff"/>
      <ellipse id="Ellipse_44" data-name="Ellipse 44" cx="0.358" cy="0.358" rx="0.358" ry="0.358" transform="translate(0 0)" fill="#fff"/>
    </g>
    <g id="Group_28" data-name="Group 28" transform="translate(1.328 4.957)">
      <ellipse id="Ellipse_45" data-name="Ellipse 45" cx="0.358" cy="0.358" rx="0.358" ry="0.358" transform="translate(17.172 9.914)" fill="#fff"/>
      <ellipse id="Ellipse_46" data-name="Ellipse 46" cx="0.358" cy="0.358" rx="0.358" ry="0.358" fill="#fff"/>
    </g>
    <g id="Group_29" data-name="Group 29" transform="translate(1.894 4.087)">
      <ellipse id="Ellipse_47" data-name="Ellipse 47" cx="0.358" cy="0.358" rx="0.358" ry="0.358" transform="translate(16.042 11.655)" fill="#fff"/>
      <ellipse id="Ellipse_48" data-name="Ellipse 48" cx="0.358" cy="0.358" rx="0.358" ry="0.358" transform="translate(0 0)" fill="#fff"/>
    </g>
    <g id="Group_30" data-name="Group 30" transform="translate(2.547 3.28)">
      <ellipse id="Ellipse_49" data-name="Ellipse 49" cx="0.358" cy="0.358" rx="0.358" ry="0.358" transform="translate(14.736 13.268)" fill="#fff"/>
      <ellipse id="Ellipse_50" data-name="Ellipse 50" cx="0.358" cy="0.358" rx="0.358" ry="0.358" fill="#fff"/>
    </g>
    <g id="Group_31" data-name="Group 31" transform="translate(3.28 2.547)">
      <ellipse id="Ellipse_51" data-name="Ellipse 51" cx="0.358" cy="0.358" rx="0.358" ry="0.358" transform="translate(13.268 14.736)" fill="#fff"/>
      <ellipse id="Ellipse_52" data-name="Ellipse 52" cx="0.358" cy="0.358" rx="0.358" ry="0.358" fill="#fff"/>
    </g>
    <g id="Group_32" data-name="Group 32" transform="translate(4.087 1.893)">
      <ellipse id="Ellipse_53" data-name="Ellipse 53" cx="0.358" cy="0.358" rx="0.358" ry="0.358" transform="translate(11.655 16.042)" fill="#fff"/>
      <ellipse id="Ellipse_54" data-name="Ellipse 54" cx="0.358" cy="0.358" rx="0.358" ry="0.358" fill="#fff"/>
    </g>
    <g id="Group_33" data-name="Group 33" transform="translate(4.957 1.328)">
      <ellipse id="Ellipse_55" data-name="Ellipse 55" cx="0.358" cy="0.358" rx="0.358" ry="0.358" transform="translate(9.914 17.172)" fill="#fff"/>
      <ellipse id="Ellipse_56" data-name="Ellipse 56" cx="0.358" cy="0.358" rx="0.358" ry="0.358" transform="translate(0 0)" fill="#fff"/>
    </g>
    <g id="Group_34" data-name="Group 34" transform="translate(5.882 0.857)">
      <ellipse id="Ellipse_57" data-name="Ellipse 57" cx="0.358" cy="0.358" rx="0.358" ry="0.358" transform="translate(8.065 18.115)" fill="#fff"/>
      <ellipse id="Ellipse_58" data-name="Ellipse 58" cx="0.358" cy="0.358" rx="0.358" ry="0.358" transform="translate(0 0)" fill="#fff"/>
    </g>
    <g id="Group_35" data-name="Group 35" transform="translate(6.851 0.485)">
      <ellipse id="Ellipse_59" data-name="Ellipse 59" cx="0.358" cy="0.358" rx="0.358" ry="0.358" transform="translate(6.127 18.858)" fill="#fff"/>
      <ellipse id="Ellipse_60" data-name="Ellipse 60" cx="0.358" cy="0.358" rx="0.358" ry="0.358" transform="translate(0 0)" fill="#fff"/>
    </g>
    <g id="Group_36" data-name="Group 36" transform="translate(7.853 0.217)">
      <ellipse id="Ellipse_61" data-name="Ellipse 61" cx="0.358" cy="0.358" rx="0.358" ry="0.358" transform="translate(4.123 19.396)" fill="#fff"/>
      <ellipse id="Ellipse_62" data-name="Ellipse 62" cx="0.358" cy="0.358" rx="0.358" ry="0.358" transform="translate(0 0)" fill="#fff"/>
    </g>
    <g id="Group_37" data-name="Group 37" transform="translate(8.878 0.054)">
      <ellipse id="Ellipse_63" data-name="Ellipse 63" cx="0.358" cy="0.358" rx="0.358" ry="0.358" transform="translate(2.073 19.72)" fill="#fff"/>
      <ellipse id="Ellipse_64" data-name="Ellipse 64" cx="0.358" cy="0.358" rx="0.358" ry="0.358" transform="translate(0 0)" fill="#fff"/>
    </g>
  </g>
</svg>
