<svg xmlns="http://www.w3.org/2000/svg" width="21.089" height="20.115" viewBox="0 0 21.089 20.115"><defs><style>.a{opacity:0.4;}.b{fill:#212121;}</style></defs><g class="a"><path class="b" d="M118.16,236.623a5.93,5.93,0,0,0-4.615,2.211A5.927,5.927,0,0,0,103,242.553c0,2.568,1.534,5.542,4.561,8.839a44.008,44.008,0,0,0,5.592,5.051l.392.294.392-.294a44,44,0,0,0,5.592-5.051c3.026-3.3,4.561-6.271,4.561-8.839A5.937,5.937,0,0,0,118.16,236.623Zm.615,14.052a44.309,44.309,0,0,1-5.23,4.78,44.308,44.308,0,0,1-5.229-4.78c-2.873-3.13-4.391-5.994-4.391-8.285a4.814,4.814,0,0,1,9.027-2.33l.594,1.071.594-1.071a4.814,4.814,0,0,1,9.027,2.33C123.165,244.68,121.647,247.545,118.774,250.675Z" transform="translate(-103 -236.623)"/></g></svg>