<svg xmlns="http://www.w3.org/2000/svg" width="35.999" height="39.271" viewBox="0 0 35.999 39.271">
  <g id="Group_2" data-name="Group 2" transform="translate(-277 -256)">
    <path id="Path_2" data-name="Path 2" d="M416.468,679.363a6.144,6.144,0,0,1-6.136-6.136,1.227,1.227,0,0,1,2.454,0,3.682,3.682,0,1,0,7.363,0,1.227,1.227,0,1,1,2.454,0,6.144,6.144,0,0,1-6.136,6.136Zm0,0" transform="translate(-123.105 -384.092)" fill="#181919"/>
    <path id="Path_3" data-name="Path 3" d="M306.862,349.454h-27a2.864,2.864,0,0,1-1.862-5.04,1.118,1.118,0,0,1,.131-.1,11,11,0,0,0,3.777-8.3v-4.565A11.468,11.468,0,0,1,293.363,320a4.923,4.923,0,0,1,.807.049,1.227,1.227,0,1,1-.4,2.42,2.576,2.576,0,0,0-.4-.015,9.01,9.01,0,0,0-9,9v4.565a13.458,13.458,0,0,1-4.75,10.261c-.025.02-.046.038-.072.056a.405.405,0,0,0-.087.254.414.414,0,0,0,.409.409h27a.414.414,0,0,0,.409-.409.391.391,0,0,0-.088-.254c-.025-.018-.046-.036-.07-.056a13.455,13.455,0,0,1-4.75-10.261v-1.783a1.227,1.227,0,1,1,2.454,0v1.783a11,11,0,0,0,3.781,8.3,1.2,1.2,0,0,1,.126.095,2.863,2.863,0,0,1-1.862,5.038Z" transform="translate(0 -59.091)" fill="#181919"/>
    <path id="Path_4" data-name="Path 4" d="M666.332,704" transform="translate(-359.469 -413.638)" fill="#6681aa"/>
    <path id="Path_5" data-name="Path 5" d="M541.182,272.363a8.181,8.181,0,1,1,8.181-8.181,8.191,8.191,0,0,1-8.181,8.181Z" transform="translate(-236.364)" fill="#325132"/>
    <path id="Path_6" data-name="Path 6" d="M570.727,288a5.727,5.727,0,1,0,5.727,5.727A5.733,5.733,0,0,0,570.727,288Z" transform="translate(-265.91 -29.546)" fill="#325132"/>
    <path id="Path_7" data-name="Path 7" d="M639.668,288" transform="translate(-334.851 -29.546)" fill="#191000"/>
  </g>
</svg>
